<?xml version="1.0" encoding="utf-8" standalone="no"?>
<!DOCTYPE svg PUBLIC "-//W3C//DTD SVG 1.1//EN"
  "http://www.w3.org/Graphics/SVG/1.1/DTD/svg11.dtd">
<!-- Created with matplotlib (http://matplotlib.org/) -->
<svg height="360pt" version="1.1" viewBox="0 0 540 360" width="540pt" xmlns="http://www.w3.org/2000/svg" xmlns:xlink="http://www.w3.org/1999/xlink">
 <defs>
  <style type="text/css">
*{stroke-linecap:butt;stroke-linejoin:round;stroke-miterlimit:100000;}
  </style>
 </defs>
 <g id="figure_1">
  <g id="patch_1">
   <path d="M 0 360 
L 540 360 
L 540 0 
L 0 0 
z
" style="fill:none;"/>
  </g>
  <g id="axes_1">
   <g id="patch_2">
    <path d="M 82.05 296.678292 
L 518.902757 296.678292 
L 518.902757 25.8 
L 82.05 25.8 
z
" style="fill:none;"/>
   </g>
   <g id="PolyCollection_1">
    <defs>
     <path d="M 205.824948 -243.907236 
L 205.824948 -243.907236 
L 207.281124 -248.421874 
L 208.7373 -252.936512 
L 210.193476 -257.451151 
L 211.649651 -261.965789 
L 213.105827 -266.480427 
L 214.562003 -270.995065 
L 216.018179 -275.509703 
L 217.474355 -280.024342 
L 218.930531 -284.53898 
L 220.386707 -289.053618 
L 221.842882 -293.568256 
L 223.299058 -298.082894 
L 224.755234 -302.597533 
L 226.21141 -307.112171 
L 227.667586 -311.626809 
L 229.123762 -311.626809 
L 230.579938 -311.626809 
L 232.036113 -311.626809 
L 233.492289 -311.626809 
L 234.948465 -311.626809 
L 236.404641 -311.626809 
L 237.860817 -311.626809 
L 239.316993 -311.626809 
L 240.773169 -311.626809 
L 242.229344 -311.626809 
L 243.68552 -311.626809 
L 245.141696 -311.626809 
L 246.597872 -311.626809 
L 248.054048 -311.626809 
L 249.510224 -311.626809 
L 250.9664 -311.626809 
L 252.422575 -311.626809 
L 253.878751 -311.626809 
L 255.334927 -311.626809 
L 256.791103 -311.626809 
L 258.247279 -311.626809 
L 259.703455 -311.626809 
L 261.159631 -311.626809 
L 262.615806 -311.626809 
L 264.071982 -311.626809 
L 265.528158 -311.626809 
L 266.984334 -311.626809 
L 268.44051 -311.626809 
L 269.896686 -311.626809 
L 271.352862 -311.626809 
L 272.809037 -311.626809 
L 274.265213 -311.626809 
L 275.721389 -311.626809 
L 277.177565 -311.626809 
L 278.633741 -311.626809 
L 280.089917 -311.626809 
L 281.546093 -311.626809 
L 283.002268 -311.626809 
L 284.458444 -311.626809 
L 285.91462 -311.626809 
L 287.370796 -311.626809 
L 288.826972 -311.626809 
L 290.283148 -311.626809 
L 291.739324 -311.626809 
L 293.195499 -311.626809 
L 294.651675 -311.626809 
L 296.107851 -311.626809 
L 297.564027 -311.626809 
L 299.020203 -311.626809 
L 300.476379 -311.626809 
L 301.932555 -311.626809 
L 303.38873 -311.626809 
L 304.844906 -311.626809 
L 306.301082 -311.626809 
L 307.757258 -311.626809 
L 309.213434 -311.626809 
L 310.66961 -311.626809 
L 312.125786 -311.626809 
L 313.581961 -311.626809 
L 315.038137 -311.626809 
L 316.494313 -311.626809 
L 317.950489 -311.626809 
L 319.406665 -311.626809 
L 320.862841 -311.626809 
L 322.319017 -311.626809 
L 323.775192 -311.626809 
L 325.231368 -311.626809 
L 326.687544 -311.626809 
L 328.14372 -311.626809 
L 329.599896 -311.626809 
L 331.056072 -311.626809 
L 332.512248 -311.626809 
L 333.968423 -311.626809 
L 335.424599 -311.626809 
L 336.880775 -311.626809 
L 338.336951 -311.626809 
L 339.793127 -311.626809 
L 341.249303 -311.626809 
L 342.705479 -311.626809 
L 344.161654 -311.626809 
L 345.61783 -311.626809 
L 347.074006 -311.626809 
L 348.530182 -311.626809 
L 349.986358 -311.626809 
L 351.442534 -311.626809 
L 352.89871 -311.626809 
L 354.354886 -311.626809 
L 355.811061 -311.626809 
L 357.267237 -311.626809 
L 358.723413 -311.626809 
L 360.179589 -311.626809 
L 361.635765 -311.626809 
L 363.091941 -311.626809 
L 364.548117 -311.626809 
L 366.004292 -311.626809 
L 367.460468 -311.626809 
L 368.916644 -311.626809 
L 370.37282 -311.626809 
L 371.828996 -311.626809 
L 373.285172 -311.626809 
L 374.741348 -307.112171 
L 376.197523 -302.597533 
L 377.653699 -298.082894 
L 379.109875 -293.568256 
L 380.566051 -289.053618 
L 382.022227 -284.53898 
L 383.478403 -280.024342 
L 384.934579 -275.509703 
L 386.390754 -270.995065 
L 387.84693 -266.480427 
L 389.303106 -261.965789 
L 390.759282 -257.451151 
L 392.215458 -252.936512 
L 393.671634 -248.421874 
L 395.12781 -243.907236 
L 395.12781 -243.907236 
L 395.12781 -243.907236 
L 393.671634 -243.907236 
L 392.215458 -243.907236 
L 390.759282 -243.907236 
L 389.303106 -243.907236 
L 387.84693 -243.907236 
L 386.390754 -243.907236 
L 384.934579 -243.907236 
L 383.478403 -243.907236 
L 382.022227 -243.907236 
L 380.566051 -243.907236 
L 379.109875 -243.907236 
L 377.653699 -243.907236 
L 376.197523 -243.907236 
L 374.741348 -243.907236 
L 373.285172 -243.907236 
L 371.828996 -243.907236 
L 370.37282 -243.907236 
L 368.916644 -243.907236 
L 367.460468 -243.907236 
L 366.004292 -243.907236 
L 364.548117 -243.907236 
L 363.091941 -243.907236 
L 361.635765 -243.907236 
L 360.179589 -243.907236 
L 358.723413 -243.907236 
L 357.267237 -243.907236 
L 355.811061 -243.907236 
L 354.354886 -243.907236 
L 352.89871 -243.907236 
L 351.442534 -243.907236 
L 349.986358 -243.907236 
L 348.530182 -243.907236 
L 347.074006 -243.907236 
L 345.61783 -243.907236 
L 344.161654 -243.907236 
L 342.705479 -243.907236 
L 341.249303 -243.907236 
L 339.793127 -243.907236 
L 338.336951 -243.907236 
L 336.880775 -243.907236 
L 335.424599 -243.907236 
L 333.968423 -243.907236 
L 332.512248 -243.907236 
L 331.056072 -243.907236 
L 329.599896 -243.907236 
L 328.14372 -243.907236 
L 326.687544 -243.907236 
L 325.231368 -243.907236 
L 323.775192 -243.907236 
L 322.319017 -243.907236 
L 320.862841 -243.907236 
L 319.406665 -243.907236 
L 317.950489 -243.907236 
L 316.494313 -243.907236 
L 315.038137 -243.907236 
L 313.581961 -243.907236 
L 312.125786 -243.907236 
L 310.66961 -243.907236 
L 309.213434 -243.907236 
L 307.757258 -243.907236 
L 306.301082 -243.907236 
L 304.844906 -243.907236 
L 303.38873 -243.907236 
L 301.932555 -243.907236 
L 300.476379 -243.907236 
L 299.020203 -243.907236 
L 297.564027 -243.907236 
L 296.107851 -243.907236 
L 294.651675 -243.907236 
L 293.195499 -243.907236 
L 291.739324 -243.907236 
L 290.283148 -243.907236 
L 288.826972 -243.907236 
L 287.370796 -243.907236 
L 285.91462 -243.907236 
L 284.458444 -243.907236 
L 283.002268 -243.907236 
L 281.546093 -243.907236 
L 280.089917 -243.907236 
L 278.633741 -243.907236 
L 277.177565 -243.907236 
L 275.721389 -243.907236 
L 274.265213 -243.907236 
L 272.809037 -243.907236 
L 271.352862 -243.907236 
L 269.896686 -243.907236 
L 268.44051 -243.907236 
L 266.984334 -243.907236 
L 265.528158 -243.907236 
L 264.071982 -243.907236 
L 262.615806 -243.907236 
L 261.159631 -243.907236 
L 259.703455 -243.907236 
L 258.247279 -243.907236 
L 256.791103 -243.907236 
L 255.334927 -243.907236 
L 253.878751 -243.907236 
L 252.422575 -243.907236 
L 250.9664 -243.907236 
L 249.510224 -243.907236 
L 248.054048 -243.907236 
L 246.597872 -243.907236 
L 245.141696 -243.907236 
L 243.68552 -243.907236 
L 242.229344 -243.907236 
L 240.773169 -243.907236 
L 239.316993 -243.907236 
L 237.860817 -243.907236 
L 236.404641 -243.907236 
L 234.948465 -243.907236 
L 233.492289 -243.907236 
L 232.036113 -243.907236 
L 230.579938 -243.907236 
L 229.123762 -243.907236 
L 227.667586 -243.907236 
L 226.21141 -243.907236 
L 224.755234 -243.907236 
L 223.299058 -243.907236 
L 221.842882 -243.907236 
L 220.386707 -243.907236 
L 218.930531 -243.907236 
L 217.474355 -243.907236 
L 216.018179 -243.907236 
L 214.562003 -243.907236 
L 213.105827 -243.907236 
L 211.649651 -243.907236 
L 210.193476 -243.907236 
L 208.7373 -243.907236 
L 207.281124 -243.907236 
L 205.824948 -243.907236 
z
" id="m3963e3a6d3" style="stroke:#1ee499;stroke-opacity:0.5;"/>
    </defs>
    <g clip-path="url(#pe4dfc37c60)">
     <use style="fill:#1ee499;fill-opacity:0.5;stroke:#1ee499;stroke-opacity:0.5;" x="0.0" xlink:href="#m3963e3a6d3" y="360.0"/>
    </g>
   </g>
   <g id="PolyCollection_2">
    <path clip-path="url(#pe4dfc37c60)" d="M 82.05 274.105101 
L 82.05 274.105101 
L 83.506176 274.105101 
L 84.962352 274.105101 
L 86.418528 274.105101 
L 87.874703 274.105101 
L 89.330879 274.105101 
L 90.787055 274.105101 
L 92.243231 274.105101 
L 93.699407 274.105101 
L 95.155583 274.105101 
L 96.611759 274.105101 
L 98.067934 274.105101 
L 99.52411 274.105101 
L 100.980286 274.105101 
L 102.436462 274.105101 
L 103.892638 274.105101 
L 105.348814 274.105101 
L 106.80499 274.105101 
L 108.261165 274.105101 
L 109.717341 274.105101 
L 111.173517 274.105101 
L 112.629693 274.105101 
L 114.085869 274.105101 
L 115.542045 274.105101 
L 116.998221 274.105101 
L 118.454396 274.105101 
L 119.910572 274.105101 
L 121.366748 274.105101 
L 122.822924 274.105101 
L 124.2791 274.105101 
L 125.735276 274.105101 
L 127.191452 274.105101 
L 128.647627 274.105101 
L 130.103803 274.105101 
L 131.559979 274.105101 
L 133.016155 274.105101 
L 134.472331 274.105101 
L 135.928507 274.105101 
L 137.384683 274.105101 
L 138.840858 274.105101 
L 140.297034 274.105101 
L 141.75321 274.105101 
L 143.209386 274.105101 
L 144.665562 274.105101 
L 146.121738 274.105101 
L 147.577914 274.105101 
L 149.034089 274.105101 
L 150.490265 274.105101 
L 151.946441 274.105101 
L 153.402617 274.105101 
L 154.858793 274.105101 
L 156.314969 269.590463 
L 157.771145 265.075824 
L 159.22732 260.561186 
L 160.683496 256.046548 
L 162.139672 251.53191 
L 163.595848 247.017272 
L 165.052024 242.502634 
L 166.5082 237.987995 
L 167.964376 233.473357 
L 169.420551 228.958719 
L 170.876727 224.444081 
L 172.332903 219.929443 
L 173.789079 215.414804 
L 175.245255 210.900166 
L 176.701431 206.385528 
L 178.157607 201.87089 
L 179.613783 197.356252 
L 181.069958 192.841613 
L 182.526134 188.326975 
L 183.98231 183.812337 
L 185.438486 179.297699 
L 186.894662 174.783061 
L 188.350838 170.268422 
L 189.807014 165.753784 
L 191.263189 161.239146 
L 192.719365 156.724508 
L 194.175541 152.20987 
L 195.631717 147.695231 
L 197.087893 143.180593 
L 198.544069 138.665955 
L 200.000245 134.151317 
L 201.45642 129.636679 
L 202.912596 125.12204 
L 204.368772 120.607402 
L 205.824948 116.092764 
L 204.368772 116.092764 
L 202.912596 116.092764 
L 201.45642 116.092764 
L 200.000245 116.092764 
L 198.544069 116.092764 
L 197.087893 116.092764 
L 195.631717 116.092764 
L 194.175541 116.092764 
L 192.719365 116.092764 
L 191.263189 116.092764 
L 189.807014 116.092764 
L 188.350838 116.092764 
L 186.894662 116.092764 
L 185.438486 116.092764 
L 183.98231 116.092764 
L 182.526134 116.092764 
L 181.069958 116.092764 
L 179.613783 116.092764 
L 178.157607 116.092764 
L 176.701431 116.092764 
L 175.245255 116.092764 
L 173.789079 116.092764 
L 172.332903 116.092764 
L 170.876727 116.092764 
L 169.420551 116.092764 
L 167.964376 116.092764 
L 166.5082 116.092764 
L 165.052024 116.092764 
L 163.595848 116.092764 
L 162.139672 116.092764 
L 160.683496 116.092764 
L 159.22732 116.092764 
L 157.771145 116.092764 
L 156.314969 116.092764 
L 154.858793 116.092764 
L 153.402617 116.092764 
L 151.946441 116.092764 
L 150.490265 116.092764 
L 149.034089 116.092764 
L 147.577914 116.092764 
L 146.121738 116.092764 
L 144.665562 116.092764 
L 143.209386 116.092764 
L 141.75321 116.092764 
L 140.297034 116.092764 
L 138.840858 116.092764 
L 137.384683 116.092764 
L 135.928507 116.092764 
L 134.472331 116.092764 
L 133.016155 116.092764 
L 131.559979 116.092764 
L 130.103803 116.092764 
L 128.647627 116.092764 
L 127.191452 116.092764 
L 125.735276 116.092764 
L 124.2791 116.092764 
L 122.822924 116.092764 
L 121.366748 116.092764 
L 119.910572 116.092764 
L 118.454396 116.092764 
L 116.998221 116.092764 
L 115.542045 116.092764 
L 114.085869 116.092764 
L 112.629693 116.092764 
L 111.173517 116.092764 
L 109.717341 116.092764 
L 108.261165 116.092764 
L 106.80499 116.092764 
L 105.348814 116.092764 
L 103.892638 116.092764 
L 102.436462 116.092764 
L 100.980286 116.092764 
L 99.52411 116.092764 
L 98.067934 116.092764 
L 96.611759 116.092764 
L 95.155583 116.092764 
L 93.699407 116.092764 
L 92.243231 116.092764 
L 90.787055 116.092764 
L 89.330879 116.092764 
L 87.874703 116.092764 
L 86.418528 116.092764 
L 84.962352 116.092764 
L 83.506176 116.092764 
L 82.05 116.092764 
z
" style="fill:#ff0000;fill-opacity:0.35;stroke:#ff0000;stroke-opacity:0.35;"/>
    <path clip-path="url(#pe4dfc37c60)" d="M 395.12781 116.092764 
L 396.583985 120.607402 
L 398.040161 125.12204 
L 399.496337 129.636679 
L 400.952513 134.151317 
L 402.408689 138.665955 
L 403.864865 143.180593 
L 405.321041 147.695231 
L 406.777216 152.20987 
L 408.233392 156.724508 
L 409.689568 161.239146 
L 411.145744 165.753784 
L 412.60192 170.268422 
L 414.058096 174.783061 
L 415.514272 179.297699 
L 416.970447 183.812337 
L 418.426623 188.326975 
L 419.882799 192.841613 
L 421.338975 197.356252 
L 422.795151 201.87089 
L 424.251327 206.385528 
L 425.707503 210.900166 
L 427.163678 215.414804 
L 428.619854 219.929443 
L 430.07603 224.444081 
L 431.532206 228.958719 
L 432.988382 233.473357 
L 434.444558 237.987995 
L 435.900734 242.502634 
L 437.356909 247.017272 
L 438.813085 251.53191 
L 440.269261 256.046548 
L 441.725437 260.561186 
L 443.181613 265.075824 
L 444.637789 269.590463 
L 446.093965 274.105101 
L 447.55014 274.105101 
L 449.006316 274.105101 
L 450.462492 274.105101 
L 451.918668 274.105101 
L 453.374844 274.105101 
L 454.83102 274.105101 
L 456.287196 274.105101 
L 457.743371 274.105101 
L 459.199547 274.105101 
L 460.655723 274.105101 
L 462.111899 274.105101 
L 463.568075 274.105101 
L 465.024251 274.105101 
L 466.480427 274.105101 
L 467.936602 274.105101 
L 469.392778 274.105101 
L 470.848954 274.105101 
L 472.30513 274.105101 
L 473.761306 274.105101 
L 475.217482 274.105101 
L 476.673658 274.105101 
L 478.129833 274.105101 
L 479.586009 274.105101 
L 481.042185 274.105101 
L 482.498361 274.105101 
L 483.954537 274.105101 
L 485.410713 274.105101 
L 486.866889 274.105101 
L 488.323064 274.105101 
L 489.77924 274.105101 
L 491.235416 274.105101 
L 492.691592 274.105101 
L 494.147768 274.105101 
L 495.603944 274.105101 
L 497.06012 274.105101 
L 498.516295 274.105101 
L 499.972471 274.105101 
L 501.428647 274.105101 
L 502.884823 274.105101 
L 504.340999 274.105101 
L 505.797175 274.105101 
L 507.253351 274.105101 
L 508.709526 274.105101 
L 510.165702 274.105101 
L 511.621878 274.105101 
L 513.078054 274.105101 
L 514.53423 274.105101 
L 515.990406 274.105101 
L 517.446582 274.105101 
L 517.446582 274.105101 
L 517.446582 116.092764 
L 515.990406 116.092764 
L 514.53423 116.092764 
L 513.078054 116.092764 
L 511.621878 116.092764 
L 510.165702 116.092764 
L 508.709526 116.092764 
L 507.253351 116.092764 
L 505.797175 116.092764 
L 504.340999 116.092764 
L 502.884823 116.092764 
L 501.428647 116.092764 
L 499.972471 116.092764 
L 498.516295 116.092764 
L 497.06012 116.092764 
L 495.603944 116.092764 
L 494.147768 116.092764 
L 492.691592 116.092764 
L 491.235416 116.092764 
L 489.77924 116.092764 
L 488.323064 116.092764 
L 486.866889 116.092764 
L 485.410713 116.092764 
L 483.954537 116.092764 
L 482.498361 116.092764 
L 481.042185 116.092764 
L 479.586009 116.092764 
L 478.129833 116.092764 
L 476.673658 116.092764 
L 475.217482 116.092764 
L 473.761306 116.092764 
L 472.30513 116.092764 
L 470.848954 116.092764 
L 469.392778 116.092764 
L 467.936602 116.092764 
L 466.480427 116.092764 
L 465.024251 116.092764 
L 463.568075 116.092764 
L 462.111899 116.092764 
L 460.655723 116.092764 
L 459.199547 116.092764 
L 457.743371 116.092764 
L 456.287196 116.092764 
L 454.83102 116.092764 
L 453.374844 116.092764 
L 451.918668 116.092764 
L 450.462492 116.092764 
L 449.006316 116.092764 
L 447.55014 116.092764 
L 446.093965 116.092764 
L 444.637789 116.092764 
L 443.181613 116.092764 
L 441.725437 116.092764 
L 440.269261 116.092764 
L 438.813085 116.092764 
L 437.356909 116.092764 
L 435.900734 116.092764 
L 434.444558 116.092764 
L 432.988382 116.092764 
L 431.532206 116.092764 
L 430.07603 116.092764 
L 428.619854 116.092764 
L 427.163678 116.092764 
L 425.707503 116.092764 
L 424.251327 116.092764 
L 422.795151 116.092764 
L 421.338975 116.092764 
L 419.882799 116.092764 
L 418.426623 116.092764 
L 416.970447 116.092764 
L 415.514272 116.092764 
L 414.058096 116.092764 
L 412.60192 116.092764 
L 411.145744 116.092764 
L 409.689568 116.092764 
L 408.233392 116.092764 
L 406.777216 116.092764 
L 405.321041 116.092764 
L 403.864865 116.092764 
L 402.408689 116.092764 
L 400.952513 116.092764 
L 399.496337 116.092764 
L 398.040161 116.092764 
L 396.583985 116.092764 
z
" style="fill:#ff0000;fill-opacity:0.35;stroke:#ff0000;stroke-opacity:0.35;"/>
   </g>
   <g id="line2d_1">
    <path clip-path="url(#pe4dfc37c60)" d="M 82.05 274.105101 
L 154.858793 274.105101 
L 227.667586 48.373191 
L 373.285172 48.373191 
L 446.093965 274.105101 
L 517.446582 274.105101 
L 517.446582 274.105101 
" style="fill:none;stroke:#364652;stroke-linecap:square;stroke-width:2.0;"/>
   </g>
   <g id="line2d_2">
    <path clip-path="url(#pe4dfc37c60)" d="M 82.05 116.092764 
L 518.902757 116.092764 
" style="fill:none;opacity:0.25;stroke:#000000;stroke-linecap:square;"/>
   </g>
   <g id="line2d_3">
    <path clip-path="url(#pe4dfc37c60)" d="M 446.093965 296.678292 
L 446.093965 25.8 
" style="fill:none;stroke:#364652;stroke-dasharray:6.000000,6.000000;stroke-dashoffset:0.0;"/>
   </g>
   <g id="line2d_4">
    <path clip-path="url(#pe4dfc37c60)" d="M 154.858793 296.678292 
L 154.858793 25.8 
" style="fill:none;stroke:#364652;stroke-dasharray:6.000000,6.000000;stroke-dashoffset:0.0;"/>
   </g>
   <g id="line2d_5">
    <path clip-path="url(#pe4dfc37c60)" d="M 373.285172 296.678292 
L 373.285172 25.8 
" style="fill:none;stroke:#364652;stroke-dasharray:6.000000,6.000000;stroke-dashoffset:0.0;"/>
   </g>
   <g id="line2d_6">
    <path clip-path="url(#pe4dfc37c60)" d="M 227.667586 296.678292 
L 227.667586 25.8 
" style="fill:none;stroke:#364652;stroke-dasharray:6.000000,6.000000;stroke-dashoffset:0.0;"/>
   </g>
   <g id="line2d_7">
    <path clip-path="url(#pe4dfc37c60)" d="M 395.12781 296.678292 
L 395.12781 25.8 
" style="fill:none;stroke:#2daf6e;stroke-dasharray:6.000000,6.000000;stroke-dashoffset:0.0;stroke-width:2.0;"/>
   </g>
   <g id="line2d_8">
    <path clip-path="url(#pe4dfc37c60)" d="M 205.824948 296.678292 
L 205.824948 25.8 
" style="fill:none;stroke:#2daf6e;stroke-dasharray:6.000000,6.000000;stroke-dashoffset:0.0;stroke-width:2.0;"/>
   </g>
   <g id="matplotlib.axis_1">
    <g id="xtick_1">
     <g id="line2d_9">
      <path clip-path="url(#pe4dfc37c60)" d="M 82.05 296.678292 
L 82.05 25.8 
" style="fill:none;opacity:0.25;stroke:#000000;stroke-dasharray:1.000000,3.000000;stroke-dashoffset:0.0;stroke-width:0.5;"/>
     </g>
     <g id="text_1">
      <!-- $350 -->
      <defs>
       <path d="M 33.796875 -14.703125 
L 28.90625 -14.703125 
L 28.859375 0 
Q 23.734375 0.09375 18.609375 1.1875 
Q 13.484375 2.296875 8.296875 4.5 
L 8.296875 13.28125 
Q 13.28125 10.15625 18.375 8.5625 
Q 23.484375 6.984375 28.90625 6.9375 
L 28.90625 29.203125 
Q 18.109375 30.953125 13.203125 35.15625 
Q 8.296875 39.359375 8.296875 46.6875 
Q 8.296875 54.640625 13.625 59.21875 
Q 18.953125 63.8125 28.90625 64.5 
L 28.90625 75.984375 
L 33.796875 75.984375 
L 33.796875 64.65625 
Q 38.328125 64.453125 42.578125 63.6875 
Q 46.828125 62.9375 50.875 61.625 
L 50.875 53.078125 
Q 46.828125 55.125 42.546875 56.25 
Q 38.28125 57.375 33.796875 57.5625 
L 33.796875 36.71875 
Q 44.875 35.015625 50.09375 30.609375 
Q 55.328125 26.21875 55.328125 18.609375 
Q 55.328125 10.359375 49.78125 5.59375 
Q 44.234375 0.828125 33.796875 0.09375 
z
M 28.90625 37.59375 
L 28.90625 57.625 
Q 23.25 56.984375 20.265625 54.390625 
Q 17.28125 51.8125 17.28125 47.515625 
Q 17.28125 43.3125 20.03125 40.96875 
Q 22.796875 38.625 28.90625 37.59375 
M 33.796875 28.21875 
L 33.796875 7.078125 
Q 39.984375 7.90625 43.140625 10.59375 
Q 46.296875 13.28125 46.296875 17.671875 
Q 46.296875 21.96875 43.28125 24.5 
Q 40.28125 27.046875 33.796875 28.21875 
" id="BitstreamVeraSans-Roman-24"/>
       <path d="M 31.78125 66.40625 
Q 24.171875 66.40625 20.328125 58.90625 
Q 16.5 51.421875 16.5 36.375 
Q 16.5 21.390625 20.328125 13.890625 
Q 24.171875 6.390625 31.78125 6.390625 
Q 39.453125 6.390625 43.28125 13.890625 
Q 47.125 21.390625 47.125 36.375 
Q 47.125 51.421875 43.28125 58.90625 
Q 39.453125 66.40625 31.78125 66.40625 
M 31.78125 74.21875 
Q 44.046875 74.21875 50.515625 64.515625 
Q 56.984375 54.828125 56.984375 36.375 
Q 56.984375 17.96875 50.515625 8.265625 
Q 44.046875 -1.421875 31.78125 -1.421875 
Q 19.53125 -1.421875 13.0625 8.265625 
Q 6.59375 17.96875 6.59375 36.375 
Q 6.59375 54.828125 13.0625 64.515625 
Q 19.53125 74.21875 31.78125 74.21875 
" id="BitstreamVeraSans-Roman-30"/>
       <path d="M 10.796875 72.90625 
L 49.515625 72.90625 
L 49.515625 64.59375 
L 19.828125 64.59375 
L 19.828125 46.734375 
Q 21.96875 47.46875 24.109375 47.828125 
Q 26.265625 48.1875 28.421875 48.1875 
Q 40.625 48.1875 47.75 41.5 
Q 54.890625 34.8125 54.890625 23.390625 
Q 54.890625 11.625 47.5625 5.09375 
Q 40.234375 -1.421875 26.90625 -1.421875 
Q 22.3125 -1.421875 17.546875 -0.640625 
Q 12.796875 0.140625 7.71875 1.703125 
L 7.71875 11.625 
Q 12.109375 9.234375 16.796875 8.0625 
Q 21.484375 6.890625 26.703125 6.890625 
Q 35.15625 6.890625 40.078125 11.328125 
Q 45.015625 15.765625 45.015625 23.390625 
Q 45.015625 31 40.078125 35.4375 
Q 35.15625 39.890625 26.703125 39.890625 
Q 22.75 39.890625 18.8125 39.015625 
Q 14.890625 38.140625 10.796875 36.28125 
z
" id="BitstreamVeraSans-Roman-35"/>
       <path d="M 40.578125 39.3125 
Q 47.65625 37.796875 51.625 33 
Q 55.609375 28.21875 55.609375 21.1875 
Q 55.609375 10.40625 48.1875 4.484375 
Q 40.765625 -1.421875 27.09375 -1.421875 
Q 22.515625 -1.421875 17.65625 -0.515625 
Q 12.796875 0.390625 7.625 2.203125 
L 7.625 11.71875 
Q 11.71875 9.328125 16.59375 8.109375 
Q 21.484375 6.890625 26.8125 6.890625 
Q 36.078125 6.890625 40.9375 10.546875 
Q 45.796875 14.203125 45.796875 21.1875 
Q 45.796875 27.640625 41.28125 31.265625 
Q 36.765625 34.90625 28.71875 34.90625 
L 20.21875 34.90625 
L 20.21875 43.015625 
L 29.109375 43.015625 
Q 36.375 43.015625 40.234375 45.921875 
Q 44.09375 48.828125 44.09375 54.296875 
Q 44.09375 59.90625 40.109375 62.90625 
Q 36.140625 65.921875 28.71875 65.921875 
Q 24.65625 65.921875 20.015625 65.03125 
Q 15.375 64.15625 9.8125 62.3125 
L 9.8125 71.09375 
Q 15.4375 72.65625 20.34375 73.4375 
Q 25.25 74.21875 29.59375 74.21875 
Q 40.828125 74.21875 47.359375 69.109375 
Q 53.90625 64.015625 53.90625 55.328125 
Q 53.90625 49.265625 50.4375 45.09375 
Q 46.96875 40.921875 40.578125 39.3125 
" id="BitstreamVeraSans-Roman-33"/>
      </defs>
      <g transform="translate(76.412591187 320.373311297)rotate(-45.0)scale(0.08 -0.08)">
       <use xlink:href="#BitstreamVeraSans-Roman-24"/>
       <use x="63.623046875" xlink:href="#BitstreamVeraSans-Roman-33"/>
       <use x="127.24609375" xlink:href="#BitstreamVeraSans-Roman-35"/>
       <use x="190.869140625" xlink:href="#BitstreamVeraSans-Roman-30"/>
      </g>
     </g>
    </g>
    <g id="xtick_2">
     <g id="line2d_10">
      <path clip-path="url(#pe4dfc37c60)" d="M 154.858793 296.678292 
L 154.858793 25.8 
" style="fill:none;opacity:0.25;stroke:#000000;stroke-dasharray:1.000000,3.000000;stroke-dashoffset:0.0;stroke-width:0.5;"/>
     </g>
     <g id="text_2">
      <!-- $400 -->
      <defs>
       <path d="M 37.796875 64.3125 
L 12.890625 25.390625 
L 37.796875 25.390625 
z
M 35.203125 72.90625 
L 47.609375 72.90625 
L 47.609375 25.390625 
L 58.015625 25.390625 
L 58.015625 17.1875 
L 47.609375 17.1875 
L 47.609375 0 
L 37.796875 0 
L 37.796875 17.1875 
L 4.890625 17.1875 
L 4.890625 26.703125 
z
" id="BitstreamVeraSans-Roman-34"/>
      </defs>
      <g transform="translate(149.221384103 320.373311297)rotate(-45.0)scale(0.08 -0.08)">
       <use xlink:href="#BitstreamVeraSans-Roman-24"/>
       <use x="63.623046875" xlink:href="#BitstreamVeraSans-Roman-34"/>
       <use x="127.24609375" xlink:href="#BitstreamVeraSans-Roman-30"/>
       <use x="190.869140625" xlink:href="#BitstreamVeraSans-Roman-30"/>
      </g>
     </g>
    </g>
    <g id="xtick_3">
     <g id="line2d_11">
      <path clip-path="url(#pe4dfc37c60)" d="M 227.667586 296.678292 
L 227.667586 25.8 
" style="fill:none;opacity:0.25;stroke:#000000;stroke-dasharray:1.000000,3.000000;stroke-dashoffset:0.0;stroke-width:0.5;"/>
     </g>
     <g id="text_3">
      <!-- $450 -->
      <g transform="translate(222.03017702 320.373311297)rotate(-45.0)scale(0.08 -0.08)">
       <use xlink:href="#BitstreamVeraSans-Roman-24"/>
       <use x="63.623046875" xlink:href="#BitstreamVeraSans-Roman-34"/>
       <use x="127.24609375" xlink:href="#BitstreamVeraSans-Roman-35"/>
       <use x="190.869140625" xlink:href="#BitstreamVeraSans-Roman-30"/>
      </g>
     </g>
    </g>
    <g id="xtick_4">
     <g id="line2d_12">
      <path clip-path="url(#pe4dfc37c60)" d="M 300.476379 296.678292 
L 300.476379 25.8 
" style="fill:none;opacity:0.25;stroke:#000000;stroke-dasharray:1.000000,3.000000;stroke-dashoffset:0.0;stroke-width:0.5;"/>
     </g>
     <g id="text_4">
      <!-- $500 -->
      <g transform="translate(294.838969936 320.373311297)rotate(-45.0)scale(0.08 -0.08)">
       <use xlink:href="#BitstreamVeraSans-Roman-24"/>
       <use x="63.623046875" xlink:href="#BitstreamVeraSans-Roman-35"/>
       <use x="127.24609375" xlink:href="#BitstreamVeraSans-Roman-30"/>
       <use x="190.869140625" xlink:href="#BitstreamVeraSans-Roman-30"/>
      </g>
     </g>
    </g>
    <g id="xtick_5">
     <g id="line2d_13">
      <path clip-path="url(#pe4dfc37c60)" d="M 373.285172 296.678292 
L 373.285172 25.8 
" style="fill:none;opacity:0.25;stroke:#000000;stroke-dasharray:1.000000,3.000000;stroke-dashoffset:0.0;stroke-width:0.5;"/>
     </g>
     <g id="text_5">
      <!-- $550 -->
      <g transform="translate(367.647762853 320.373311297)rotate(-45.0)scale(0.08 -0.08)">
       <use xlink:href="#BitstreamVeraSans-Roman-24"/>
       <use x="63.623046875" xlink:href="#BitstreamVeraSans-Roman-35"/>
       <use x="127.24609375" xlink:href="#BitstreamVeraSans-Roman-35"/>
       <use x="190.869140625" xlink:href="#BitstreamVeraSans-Roman-30"/>
      </g>
     </g>
    </g>
    <g id="xtick_6">
     <g id="line2d_14">
      <path clip-path="url(#pe4dfc37c60)" d="M 446.093965 296.678292 
L 446.093965 25.8 
" style="fill:none;opacity:0.25;stroke:#000000;stroke-dasharray:1.000000,3.000000;stroke-dashoffset:0.0;stroke-width:0.5;"/>
     </g>
     <g id="text_6">
      <!-- $600 -->
      <defs>
       <path d="M 33.015625 40.375 
Q 26.375 40.375 22.484375 35.828125 
Q 18.609375 31.296875 18.609375 23.390625 
Q 18.609375 15.53125 22.484375 10.953125 
Q 26.375 6.390625 33.015625 6.390625 
Q 39.65625 6.390625 43.53125 10.953125 
Q 47.40625 15.53125 47.40625 23.390625 
Q 47.40625 31.296875 43.53125 35.828125 
Q 39.65625 40.375 33.015625 40.375 
M 52.59375 71.296875 
L 52.59375 62.3125 
Q 48.875 64.0625 45.09375 64.984375 
Q 41.3125 65.921875 37.59375 65.921875 
Q 27.828125 65.921875 22.671875 59.328125 
Q 17.53125 52.734375 16.796875 39.40625 
Q 19.671875 43.65625 24.015625 45.921875 
Q 28.375 48.1875 33.59375 48.1875 
Q 44.578125 48.1875 50.953125 41.515625 
Q 57.328125 34.859375 57.328125 23.390625 
Q 57.328125 12.15625 50.6875 5.359375 
Q 44.046875 -1.421875 33.015625 -1.421875 
Q 20.359375 -1.421875 13.671875 8.265625 
Q 6.984375 17.96875 6.984375 36.375 
Q 6.984375 53.65625 15.1875 63.9375 
Q 23.390625 74.21875 37.203125 74.21875 
Q 40.921875 74.21875 44.703125 73.484375 
Q 48.484375 72.75 52.59375 71.296875 
" id="BitstreamVeraSans-Roman-36"/>
      </defs>
      <g transform="translate(440.456555769 320.373311297)rotate(-45.0)scale(0.08 -0.08)">
       <use xlink:href="#BitstreamVeraSans-Roman-24"/>
       <use x="63.623046875" xlink:href="#BitstreamVeraSans-Roman-36"/>
       <use x="127.24609375" xlink:href="#BitstreamVeraSans-Roman-30"/>
       <use x="190.869140625" xlink:href="#BitstreamVeraSans-Roman-30"/>
      </g>
     </g>
    </g>
    <g id="xtick_7">
     <g id="line2d_15">
      <path clip-path="url(#pe4dfc37c60)" d="M 518.902757 296.678292 
L 518.902757 25.8 
" style="fill:none;opacity:0.25;stroke:#000000;stroke-dasharray:1.000000,3.000000;stroke-dashoffset:0.0;stroke-width:0.5;"/>
     </g>
     <g id="text_7">
      <!-- $650 -->
      <g transform="translate(513.265348686 320.373311297)rotate(-45.0)scale(0.08 -0.08)">
       <use xlink:href="#BitstreamVeraSans-Roman-24"/>
       <use x="63.623046875" xlink:href="#BitstreamVeraSans-Roman-36"/>
       <use x="127.24609375" xlink:href="#BitstreamVeraSans-Roman-35"/>
       <use x="190.869140625" xlink:href="#BitstreamVeraSans-Roman-30"/>
      </g>
     </g>
    </g>
    <g id="xtick_8">
     <g id="line2d_16">
      <path clip-path="url(#pe4dfc37c60)" d="M 395.12781 296.678292 
L 395.12781 25.8 
" style="fill:none;opacity:0.25;stroke:#000000;stroke-dasharray:1.000000,3.000000;stroke-dashoffset:0.0;stroke-width:0.5;"/>
     </g>
     <g id="text_8">
      <!-- $565.00 -->
      <defs>
       <path d="M 10.6875 12.40625 
L 21 12.40625 
L 21 0 
L 10.6875 0 
z
" id="BitstreamVeraSans-Roman-2e"/>
      </defs>
      <g transform="translate(384.992317716 329.36947732)rotate(-45.0)scale(0.08 -0.08)">
       <use xlink:href="#BitstreamVeraSans-Roman-24"/>
       <use x="63.623046875" xlink:href="#BitstreamVeraSans-Roman-35"/>
       <use x="127.24609375" xlink:href="#BitstreamVeraSans-Roman-36"/>
       <use x="190.869140625" xlink:href="#BitstreamVeraSans-Roman-35"/>
       <use x="254.4921875" xlink:href="#BitstreamVeraSans-Roman-2e"/>
       <use x="286.279296875" xlink:href="#BitstreamVeraSans-Roman-30"/>
       <use x="349.90234375" xlink:href="#BitstreamVeraSans-Roman-30"/>
      </g>
     </g>
    </g>
    <g id="xtick_9">
     <g id="line2d_17">
      <path clip-path="url(#pe4dfc37c60)" d="M 205.824948 296.678292 
L 205.824948 25.8 
" style="fill:none;opacity:0.25;stroke:#000000;stroke-dasharray:1.000000,3.000000;stroke-dashoffset:0.0;stroke-width:0.5;"/>
     </g>
     <g id="text_9">
      <!-- $435.00 -->
      <g transform="translate(195.689456133 329.36947732)rotate(-45.0)scale(0.08 -0.08)">
       <use xlink:href="#BitstreamVeraSans-Roman-24"/>
       <use x="63.623046875" xlink:href="#BitstreamVeraSans-Roman-34"/>
       <use x="127.24609375" xlink:href="#BitstreamVeraSans-Roman-33"/>
       <use x="190.869140625" xlink:href="#BitstreamVeraSans-Roman-35"/>
       <use x="254.4921875" xlink:href="#BitstreamVeraSans-Roman-2e"/>
       <use x="286.279296875" xlink:href="#BitstreamVeraSans-Roman-30"/>
       <use x="349.90234375" xlink:href="#BitstreamVeraSans-Roman-30"/>
      </g>
     </g>
    </g>
    <g id="text_10">
     <!-- Stock Price -->
     <defs>
      <path d="M 8.40625 54.6875 
L 25.875 54.6875 
L 25.875 0 
L 8.40625 0 
z
M 8.40625 75.984375 
L 25.875 75.984375 
L 25.875 61.71875 
L 8.40625 61.71875 
z
" id="BitstreamVeraSans-Bold-69"/>
      <path d="M 9.1875 72.90625 
L 40.375 72.90625 
Q 54.296875 72.90625 61.734375 66.71875 
Q 69.1875 60.546875 69.1875 49.125 
Q 69.1875 37.640625 61.734375 31.46875 
Q 54.296875 25.296875 40.375 25.296875 
L 27.984375 25.296875 
L 27.984375 0 
L 9.1875 0 
z
M 27.984375 59.28125 
L 27.984375 38.921875 
L 38.375 38.921875 
Q 43.84375 38.921875 46.828125 41.578125 
Q 49.8125 44.234375 49.8125 49.125 
Q 49.8125 54 46.828125 56.640625 
Q 43.84375 59.28125 38.375 59.28125 
z
" id="BitstreamVeraSans-Bold-50"/>
      <path d="M 59.90625 70.609375 
L 59.90625 55.171875 
Q 53.90625 57.859375 48.1875 59.21875 
Q 42.484375 60.59375 37.40625 60.59375 
Q 30.671875 60.59375 27.4375 58.734375 
Q 24.21875 56.890625 24.21875 52.984375 
Q 24.21875 50.046875 26.390625 48.40625 
Q 28.5625 46.78125 34.28125 45.609375 
L 42.28125 44 
Q 54.4375 41.546875 59.5625 36.5625 
Q 64.703125 31.59375 64.703125 22.40625 
Q 64.703125 10.359375 57.546875 4.46875 
Q 50.390625 -1.421875 35.6875 -1.421875 
Q 28.765625 -1.421875 21.78125 -0.09375 
Q 14.796875 1.21875 7.8125 3.8125 
L 7.8125 19.671875 
Q 14.796875 15.96875 21.3125 14.078125 
Q 27.828125 12.203125 33.890625 12.203125 
Q 40.046875 12.203125 43.3125 14.25 
Q 46.578125 16.3125 46.578125 20.125 
Q 46.578125 23.53125 44.359375 25.390625 
Q 42.140625 27.25 35.5 28.71875 
L 28.21875 30.328125 
Q 17.28125 32.671875 12.21875 37.796875 
Q 7.171875 42.921875 7.171875 51.609375 
Q 7.171875 62.5 14.203125 68.359375 
Q 21.234375 74.21875 34.421875 74.21875 
Q 40.4375 74.21875 46.78125 73.3125 
Q 53.125 72.40625 59.90625 70.609375 
" id="BitstreamVeraSans-Bold-53"/>
      <path d="M 8.40625 75.984375 
L 25.875 75.984375 
L 25.875 34.625 
L 46 54.6875 
L 66.3125 54.6875 
L 39.59375 29.59375 
L 68.40625 0 
L 47.21875 0 
L 25.875 22.796875 
L 25.875 0 
L 8.40625 0 
z
" id="BitstreamVeraSans-Bold-6b"/>
      <path d="M 62.984375 27.484375 
L 62.984375 22.515625 
L 22.125 22.515625 
Q 22.75 16.359375 26.5625 13.28125 
Q 30.375 10.203125 37.203125 10.203125 
Q 42.71875 10.203125 48.5 11.84375 
Q 54.296875 13.484375 60.40625 16.796875 
L 60.40625 3.328125 
Q 54.203125 0.984375 48 -0.21875 
Q 41.796875 -1.421875 35.59375 -1.421875 
Q 20.75 -1.421875 12.515625 6.125 
Q 4.296875 13.671875 4.296875 27.296875 
Q 4.296875 40.671875 12.375 48.328125 
Q 20.453125 56 34.625 56 
Q 47.515625 56 55.25 48.234375 
Q 62.984375 40.484375 62.984375 27.484375 
M 45.015625 33.296875 
Q 45.015625 38.28125 42.109375 41.328125 
Q 39.203125 44.390625 34.515625 44.390625 
Q 29.4375 44.390625 26.265625 41.53125 
Q 23.09375 38.671875 22.3125 33.296875 
z
" id="BitstreamVeraSans-Bold-65"/>
      <path d="M 34.421875 43.5 
Q 28.609375 43.5 25.5625 39.328125 
Q 22.515625 35.15625 22.515625 27.296875 
Q 22.515625 19.4375 25.5625 15.25 
Q 28.609375 11.078125 34.421875 11.078125 
Q 40.140625 11.078125 43.15625 15.25 
Q 46.1875 19.4375 46.1875 27.296875 
Q 46.1875 35.15625 43.15625 39.328125 
Q 40.140625 43.5 34.421875 43.5 
M 34.421875 56 
Q 48.53125 56 56.46875 48.375 
Q 64.40625 40.765625 64.40625 27.296875 
Q 64.40625 13.8125 56.46875 6.1875 
Q 48.53125 -1.421875 34.421875 -1.421875 
Q 20.265625 -1.421875 12.28125 6.1875 
Q 4.296875 13.8125 4.296875 27.296875 
Q 4.296875 40.765625 12.28125 48.375 
Q 20.265625 56 34.421875 56 
" id="BitstreamVeraSans-Bold-6f"/>
      <path d="M 27.484375 70.21875 
L 27.484375 54.6875 
L 45.515625 54.6875 
L 45.515625 42.1875 
L 27.484375 42.1875 
L 27.484375 19 
Q 27.484375 15.1875 29 13.84375 
Q 30.515625 12.5 35.015625 12.5 
L 44 12.5 
L 44 0 
L 29 0 
Q 18.65625 0 14.328125 4.3125 
Q 10.015625 8.640625 10.015625 19 
L 10.015625 42.1875 
L 1.3125 42.1875 
L 1.3125 54.6875 
L 10.015625 54.6875 
L 10.015625 70.21875 
z
" id="BitstreamVeraSans-Bold-74"/>
      <path d="M 49.03125 39.796875 
Q 46.734375 40.875 44.453125 41.375 
Q 42.1875 41.890625 39.890625 41.890625 
Q 33.15625 41.890625 29.515625 37.5625 
Q 25.875 33.25 25.875 25.203125 
L 25.875 0 
L 8.40625 0 
L 8.40625 54.6875 
L 25.875 54.6875 
L 25.875 45.703125 
Q 29.25 51.078125 33.609375 53.53125 
Q 37.984375 56 44.09375 56 
Q 44.96875 56 45.984375 55.921875 
Q 47.015625 55.859375 48.96875 55.609375 
z
" id="BitstreamVeraSans-Bold-72"/>
      <path id="BitstreamVeraSans-Bold-20"/>
      <path d="M 52.59375 52.984375 
L 52.59375 38.71875 
Q 49.03125 41.15625 45.4375 42.328125 
Q 41.84375 43.5 37.984375 43.5 
Q 30.671875 43.5 26.59375 39.234375 
Q 22.515625 34.96875 22.515625 27.296875 
Q 22.515625 19.625 26.59375 15.34375 
Q 30.671875 11.078125 37.984375 11.078125 
Q 42.09375 11.078125 45.78125 12.296875 
Q 49.46875 13.53125 52.59375 15.921875 
L 52.59375 1.609375 
Q 48.484375 0.09375 44.265625 -0.65625 
Q 40.046875 -1.421875 35.796875 -1.421875 
Q 21 -1.421875 12.640625 6.171875 
Q 4.296875 13.765625 4.296875 27.296875 
Q 4.296875 40.828125 12.640625 48.40625 
Q 21 56 35.796875 56 
Q 40.09375 56 44.265625 55.25 
Q 48.4375 54.5 52.59375 52.984375 
" id="BitstreamVeraSans-Bold-63"/>
     </defs>
     <g transform="translate(262.489816249 344.664051227)scale(0.12 -0.12)">
      <use xlink:href="#BitstreamVeraSans-Bold-53"/>
      <use x="72.021484375" xlink:href="#BitstreamVeraSans-Bold-74"/>
      <use x="119.82421875" xlink:href="#BitstreamVeraSans-Bold-6f"/>
      <use x="188.525390625" xlink:href="#BitstreamVeraSans-Bold-63"/>
      <use x="247.802734375" xlink:href="#BitstreamVeraSans-Bold-6b"/>
      <use x="314.306640625" xlink:href="#BitstreamVeraSans-Bold-20"/>
      <use x="349.12109375" xlink:href="#BitstreamVeraSans-Bold-50"/>
      <use x="422.412109375" xlink:href="#BitstreamVeraSans-Bold-72"/>
      <use x="471.728515625" xlink:href="#BitstreamVeraSans-Bold-69"/>
      <use x="506.005859375" xlink:href="#BitstreamVeraSans-Bold-63"/>
      <use x="565.283203125" xlink:href="#BitstreamVeraSans-Bold-65"/>
     </g>
    </g>
   </g>
   <g id="matplotlib.axis_2">
    <g id="ytick_1">
     <g id="line2d_18">
      <path clip-path="url(#pe4dfc37c60)" d="M 82.05 274.105101 
L 518.902757 274.105101 
" style="fill:none;opacity:0.25;stroke:#000000;stroke-dasharray:1.000000,3.000000;stroke-dashoffset:0.0;stroke-width:0.5;"/>
     </g>
     <g id="line2d_19">
      <defs>
       <path d="M 0 0 
L 4 0 
" id="m9959883988" style="stroke:#000000;stroke-width:0.5;"/>
      </defs>
      <g>
       <use style="stroke:#000000;stroke-width:0.5;" x="82.05" xlink:href="#m9959883988" y="274.105100895"/>
      </g>
     </g>
     <g id="text_11">
      <!-- -$3,500 -->
      <defs>
       <path d="M 11.71875 12.40625 
L 22.015625 12.40625 
L 22.015625 4 
L 14.015625 -11.625 
L 7.71875 -11.625 
L 11.71875 4 
z
" id="BitstreamVeraSans-Roman-2c"/>
       <path d="M 4.890625 31.390625 
L 31.203125 31.390625 
L 31.203125 23.390625 
L 4.890625 23.390625 
z
" id="BitstreamVeraSans-Roman-2d"/>
      </defs>
      <g transform="translate(33.4515625 276.864475895)scale(0.1 -0.1)">
       <use xlink:href="#BitstreamVeraSans-Roman-2d"/>
       <use x="36.083984375" xlink:href="#BitstreamVeraSans-Roman-24"/>
       <use x="99.70703125" xlink:href="#BitstreamVeraSans-Roman-33"/>
       <use x="163.330078125" xlink:href="#BitstreamVeraSans-Roman-2c"/>
       <use x="195.1171875" xlink:href="#BitstreamVeraSans-Roman-35"/>
       <use x="258.740234375" xlink:href="#BitstreamVeraSans-Roman-30"/>
       <use x="322.36328125" xlink:href="#BitstreamVeraSans-Roman-30"/>
      </g>
     </g>
    </g>
    <g id="ytick_2">
     <g id="line2d_20">
      <path clip-path="url(#pe4dfc37c60)" d="M 82.05 251.53191 
L 518.902757 251.53191 
" style="fill:none;opacity:0.25;stroke:#000000;stroke-dasharray:1.000000,3.000000;stroke-dashoffset:0.0;stroke-width:0.5;"/>
     </g>
     <g id="line2d_21">
      <g>
       <use style="stroke:#000000;stroke-width:0.5;" x="82.05" xlink:href="#m9959883988" y="251.531909905"/>
      </g>
     </g>
     <g id="text_12">
      <!-- -$3,000 -->
      <g transform="translate(33.4515625 254.291284905)scale(0.1 -0.1)">
       <use xlink:href="#BitstreamVeraSans-Roman-2d"/>
       <use x="36.083984375" xlink:href="#BitstreamVeraSans-Roman-24"/>
       <use x="99.70703125" xlink:href="#BitstreamVeraSans-Roman-33"/>
       <use x="163.330078125" xlink:href="#BitstreamVeraSans-Roman-2c"/>
       <use x="195.1171875" xlink:href="#BitstreamVeraSans-Roman-30"/>
       <use x="258.740234375" xlink:href="#BitstreamVeraSans-Roman-30"/>
       <use x="322.36328125" xlink:href="#BitstreamVeraSans-Roman-30"/>
      </g>
     </g>
    </g>
    <g id="ytick_3">
     <g id="line2d_22">
      <path clip-path="url(#pe4dfc37c60)" d="M 82.05 228.958719 
L 518.902757 228.958719 
" style="fill:none;opacity:0.25;stroke:#000000;stroke-dasharray:1.000000,3.000000;stroke-dashoffset:0.0;stroke-width:0.5;"/>
     </g>
     <g id="line2d_23">
      <g>
       <use style="stroke:#000000;stroke-width:0.5;" x="82.05" xlink:href="#m9959883988" y="228.958718914"/>
      </g>
     </g>
     <g id="text_13">
      <!-- -$2,500 -->
      <defs>
       <path d="M 19.1875 8.296875 
L 53.609375 8.296875 
L 53.609375 0 
L 7.328125 0 
L 7.328125 8.296875 
Q 12.9375 14.109375 22.625 23.890625 
Q 32.328125 33.6875 34.8125 36.53125 
Q 39.546875 41.84375 41.421875 45.53125 
Q 43.3125 49.21875 43.3125 52.78125 
Q 43.3125 58.59375 39.234375 62.25 
Q 35.15625 65.921875 28.609375 65.921875 
Q 23.96875 65.921875 18.8125 64.3125 
Q 13.671875 62.703125 7.8125 59.421875 
L 7.8125 69.390625 
Q 13.765625 71.78125 18.9375 73 
Q 24.125 74.21875 28.421875 74.21875 
Q 39.75 74.21875 46.484375 68.546875 
Q 53.21875 62.890625 53.21875 53.421875 
Q 53.21875 48.921875 51.53125 44.890625 
Q 49.859375 40.875 45.40625 35.40625 
Q 44.1875 33.984375 37.640625 27.21875 
Q 31.109375 20.453125 19.1875 8.296875 
" id="BitstreamVeraSans-Roman-32"/>
      </defs>
      <g transform="translate(33.4515625 231.718093914)scale(0.1 -0.1)">
       <use xlink:href="#BitstreamVeraSans-Roman-2d"/>
       <use x="36.083984375" xlink:href="#BitstreamVeraSans-Roman-24"/>
       <use x="99.70703125" xlink:href="#BitstreamVeraSans-Roman-32"/>
       <use x="163.330078125" xlink:href="#BitstreamVeraSans-Roman-2c"/>
       <use x="195.1171875" xlink:href="#BitstreamVeraSans-Roman-35"/>
       <use x="258.740234375" xlink:href="#BitstreamVeraSans-Roman-30"/>
       <use x="322.36328125" xlink:href="#BitstreamVeraSans-Roman-30"/>
      </g>
     </g>
    </g>
    <g id="ytick_4">
     <g id="line2d_24">
      <path clip-path="url(#pe4dfc37c60)" d="M 82.05 206.385528 
L 518.902757 206.385528 
" style="fill:none;opacity:0.25;stroke:#000000;stroke-dasharray:1.000000,3.000000;stroke-dashoffset:0.0;stroke-width:0.5;"/>
     </g>
     <g id="line2d_25">
      <g>
       <use style="stroke:#000000;stroke-width:0.5;" x="82.05" xlink:href="#m9959883988" y="206.385527924"/>
      </g>
     </g>
     <g id="text_14">
      <!-- -$2,000 -->
      <g transform="translate(33.4515625 209.144902924)scale(0.1 -0.1)">
       <use xlink:href="#BitstreamVeraSans-Roman-2d"/>
       <use x="36.083984375" xlink:href="#BitstreamVeraSans-Roman-24"/>
       <use x="99.70703125" xlink:href="#BitstreamVeraSans-Roman-32"/>
       <use x="163.330078125" xlink:href="#BitstreamVeraSans-Roman-2c"/>
       <use x="195.1171875" xlink:href="#BitstreamVeraSans-Roman-30"/>
       <use x="258.740234375" xlink:href="#BitstreamVeraSans-Roman-30"/>
       <use x="322.36328125" xlink:href="#BitstreamVeraSans-Roman-30"/>
      </g>
     </g>
    </g>
    <g id="ytick_5">
     <g id="line2d_26">
      <path clip-path="url(#pe4dfc37c60)" d="M 82.05 183.812337 
L 518.902757 183.812337 
" style="fill:none;opacity:0.25;stroke:#000000;stroke-dasharray:1.000000,3.000000;stroke-dashoffset:0.0;stroke-width:0.5;"/>
     </g>
     <g id="line2d_27">
      <g>
       <use style="stroke:#000000;stroke-width:0.5;" x="82.05" xlink:href="#m9959883988" y="183.812336933"/>
      </g>
     </g>
     <g id="text_15">
      <!-- -$1,500 -->
      <defs>
       <path d="M 12.40625 8.296875 
L 28.515625 8.296875 
L 28.515625 63.921875 
L 10.984375 60.40625 
L 10.984375 69.390625 
L 28.421875 72.90625 
L 38.28125 72.90625 
L 38.28125 8.296875 
L 54.390625 8.296875 
L 54.390625 0 
L 12.40625 0 
z
" id="BitstreamVeraSans-Roman-31"/>
      </defs>
      <g transform="translate(33.4515625 186.571711933)scale(0.1 -0.1)">
       <use xlink:href="#BitstreamVeraSans-Roman-2d"/>
       <use x="36.083984375" xlink:href="#BitstreamVeraSans-Roman-24"/>
       <use x="99.70703125" xlink:href="#BitstreamVeraSans-Roman-31"/>
       <use x="163.330078125" xlink:href="#BitstreamVeraSans-Roman-2c"/>
       <use x="195.1171875" xlink:href="#BitstreamVeraSans-Roman-35"/>
       <use x="258.740234375" xlink:href="#BitstreamVeraSans-Roman-30"/>
       <use x="322.36328125" xlink:href="#BitstreamVeraSans-Roman-30"/>
      </g>
     </g>
    </g>
    <g id="ytick_6">
     <g id="line2d_28">
      <path clip-path="url(#pe4dfc37c60)" d="M 82.05 161.239146 
L 518.902757 161.239146 
" style="fill:none;opacity:0.25;stroke:#000000;stroke-dasharray:1.000000,3.000000;stroke-dashoffset:0.0;stroke-width:0.5;"/>
     </g>
     <g id="line2d_29">
      <g>
       <use style="stroke:#000000;stroke-width:0.5;" x="82.05" xlink:href="#m9959883988" y="161.239145943"/>
      </g>
     </g>
     <g id="text_16">
      <!-- -$1,000 -->
      <g transform="translate(33.4515625 163.998520943)scale(0.1 -0.1)">
       <use xlink:href="#BitstreamVeraSans-Roman-2d"/>
       <use x="36.083984375" xlink:href="#BitstreamVeraSans-Roman-24"/>
       <use x="99.70703125" xlink:href="#BitstreamVeraSans-Roman-31"/>
       <use x="163.330078125" xlink:href="#BitstreamVeraSans-Roman-2c"/>
       <use x="195.1171875" xlink:href="#BitstreamVeraSans-Roman-30"/>
       <use x="258.740234375" xlink:href="#BitstreamVeraSans-Roman-30"/>
       <use x="322.36328125" xlink:href="#BitstreamVeraSans-Roman-30"/>
      </g>
     </g>
    </g>
    <g id="ytick_7">
     <g id="line2d_30">
      <path clip-path="url(#pe4dfc37c60)" d="M 82.05 138.665955 
L 518.902757 138.665955 
" style="fill:none;opacity:0.25;stroke:#000000;stroke-dasharray:1.000000,3.000000;stroke-dashoffset:0.0;stroke-width:0.5;"/>
     </g>
     <g id="line2d_31">
      <g>
       <use style="stroke:#000000;stroke-width:0.5;" x="82.05" xlink:href="#m9959883988" y="138.665954952"/>
      </g>
     </g>
     <g id="text_17">
      <!-- -$500 -->
      <g transform="translate(42.9921875 141.425329952)scale(0.1 -0.1)">
       <use xlink:href="#BitstreamVeraSans-Roman-2d"/>
       <use x="36.083984375" xlink:href="#BitstreamVeraSans-Roman-24"/>
       <use x="99.70703125" xlink:href="#BitstreamVeraSans-Roman-35"/>
       <use x="163.330078125" xlink:href="#BitstreamVeraSans-Roman-30"/>
       <use x="226.953125" xlink:href="#BitstreamVeraSans-Roman-30"/>
      </g>
     </g>
    </g>
    <g id="ytick_8">
     <g id="line2d_32">
      <path clip-path="url(#pe4dfc37c60)" d="M 82.05 116.092764 
L 518.902757 116.092764 
" style="fill:none;opacity:0.25;stroke:#000000;stroke-dasharray:1.000000,3.000000;stroke-dashoffset:0.0;stroke-width:0.5;"/>
     </g>
     <g id="line2d_33">
      <g>
       <use style="stroke:#000000;stroke-width:0.5;" x="82.05" xlink:href="#m9959883988" y="116.092763962"/>
      </g>
     </g>
     <g id="text_18">
      <!-- $0 -->
      <g transform="translate(59.325 118.852138962)scale(0.1 -0.1)">
       <use xlink:href="#BitstreamVeraSans-Roman-24"/>
       <use x="63.623046875" xlink:href="#BitstreamVeraSans-Roman-30"/>
      </g>
     </g>
    </g>
    <g id="ytick_9">
     <g id="line2d_34">
      <path clip-path="url(#pe4dfc37c60)" d="M 82.05 93.519573 
L 518.902757 93.519573 
" style="fill:none;opacity:0.25;stroke:#000000;stroke-dasharray:1.000000,3.000000;stroke-dashoffset:0.0;stroke-width:0.5;"/>
     </g>
     <g id="line2d_35">
      <g>
       <use style="stroke:#000000;stroke-width:0.5;" x="82.05" xlink:href="#m9959883988" y="93.5195729714"/>
      </g>
     </g>
     <g id="text_19">
      <!-- +$500 -->
      <defs>
       <path d="M 46 62.703125 
L 46 35.5 
L 73.1875 35.5 
L 73.1875 27.203125 
L 46 27.203125 
L 46 0 
L 37.796875 0 
L 37.796875 27.203125 
L 10.59375 27.203125 
L 10.59375 35.5 
L 37.796875 35.5 
L 37.796875 62.703125 
z
" id="BitstreamVeraSans-Roman-2b"/>
      </defs>
      <g transform="translate(38.2203125 96.2789479714)scale(0.1 -0.1)">
       <use xlink:href="#BitstreamVeraSans-Roman-2b"/>
       <use x="83.7890625" xlink:href="#BitstreamVeraSans-Roman-24"/>
       <use x="147.412109375" xlink:href="#BitstreamVeraSans-Roman-35"/>
       <use x="211.03515625" xlink:href="#BitstreamVeraSans-Roman-30"/>
       <use x="274.658203125" xlink:href="#BitstreamVeraSans-Roman-30"/>
      </g>
     </g>
    </g>
    <g id="ytick_10">
     <g id="line2d_36">
      <path clip-path="url(#pe4dfc37c60)" d="M 82.05 70.946382 
L 518.902757 70.946382 
" style="fill:none;opacity:0.25;stroke:#000000;stroke-dasharray:1.000000,3.000000;stroke-dashoffset:0.0;stroke-width:0.5;"/>
     </g>
     <g id="line2d_37">
      <g>
       <use style="stroke:#000000;stroke-width:0.5;" x="82.05" xlink:href="#m9959883988" y="70.9463819809"/>
      </g>
     </g>
     <g id="text_20">
      <!-- +$1,000 -->
      <g transform="translate(28.6796875 73.7057569809)scale(0.1 -0.1)">
       <use xlink:href="#BitstreamVeraSans-Roman-2b"/>
       <use x="83.7890625" xlink:href="#BitstreamVeraSans-Roman-24"/>
       <use x="147.412109375" xlink:href="#BitstreamVeraSans-Roman-31"/>
       <use x="211.03515625" xlink:href="#BitstreamVeraSans-Roman-2c"/>
       <use x="242.822265625" xlink:href="#BitstreamVeraSans-Roman-30"/>
       <use x="306.4453125" xlink:href="#BitstreamVeraSans-Roman-30"/>
       <use x="370.068359375" xlink:href="#BitstreamVeraSans-Roman-30"/>
      </g>
     </g>
    </g>
    <g id="ytick_11">
     <g id="line2d_38">
      <path clip-path="url(#pe4dfc37c60)" d="M 82.05 48.373191 
L 518.902757 48.373191 
" style="fill:none;opacity:0.25;stroke:#000000;stroke-dasharray:1.000000,3.000000;stroke-dashoffset:0.0;stroke-width:0.5;"/>
     </g>
     <g id="line2d_39">
      <g>
       <use style="stroke:#000000;stroke-width:0.5;" x="82.05" xlink:href="#m9959883988" y="48.3731909905"/>
      </g>
     </g>
     <g id="text_21">
      <!-- +$1,500 -->
      <g transform="translate(28.6796875 51.1325659905)scale(0.1 -0.1)">
       <use xlink:href="#BitstreamVeraSans-Roman-2b"/>
       <use x="83.7890625" xlink:href="#BitstreamVeraSans-Roman-24"/>
       <use x="147.412109375" xlink:href="#BitstreamVeraSans-Roman-31"/>
       <use x="211.03515625" xlink:href="#BitstreamVeraSans-Roman-2c"/>
       <use x="242.822265625" xlink:href="#BitstreamVeraSans-Roman-35"/>
       <use x="306.4453125" xlink:href="#BitstreamVeraSans-Roman-30"/>
       <use x="370.068359375" xlink:href="#BitstreamVeraSans-Roman-30"/>
      </g>
     </g>
    </g>
    <g id="text_22">
     <!-- Profit / Loss -->
     <defs>
      <path d="M 9.1875 72.90625 
L 27.984375 72.90625 
L 27.984375 14.203125 
L 60.984375 14.203125 
L 60.984375 0 
L 9.1875 0 
z
" id="BitstreamVeraSans-Bold-4c"/>
      <path d="M 51.125 52.984375 
L 51.125 39.703125 
Q 45.515625 42.046875 40.28125 43.21875 
Q 35.0625 44.390625 30.421875 44.390625 
Q 25.4375 44.390625 23.015625 43.140625 
Q 20.609375 41.890625 20.609375 39.3125 
Q 20.609375 37.203125 22.4375 36.078125 
Q 24.265625 34.96875 29 34.421875 
L 32.078125 33.984375 
Q 45.515625 32.28125 50.140625 28.375 
Q 54.78125 24.46875 54.78125 16.109375 
Q 54.78125 7.375 48.328125 2.96875 
Q 41.890625 -1.421875 29.109375 -1.421875 
Q 23.6875 -1.421875 17.890625 -0.5625 
Q 12.109375 0.296875 6 2 
L 6 15.28125 
Q 11.234375 12.75 16.71875 11.46875 
Q 22.21875 10.203125 27.875 10.203125 
Q 33.015625 10.203125 35.59375 11.609375 
Q 38.1875 13.03125 38.1875 15.828125 
Q 38.1875 18.171875 36.40625 19.3125 
Q 34.625 20.453125 29.296875 21.09375 
L 26.21875 21.484375 
Q 14.546875 22.953125 9.859375 26.90625 
Q 5.171875 30.859375 5.171875 38.921875 
Q 5.171875 47.609375 11.125 51.796875 
Q 17.09375 56 29.390625 56 
Q 34.234375 56 39.546875 55.265625 
Q 44.875 54.546875 51.125 52.984375 
" id="BitstreamVeraSans-Bold-73"/>
      <path d="M 44.390625 75.984375 
L 44.390625 64.5 
L 34.71875 64.5 
Q 31 64.5 29.53125 63.15625 
Q 28.078125 61.8125 28.078125 58.5 
L 28.078125 54.6875 
L 43.015625 54.6875 
L 43.015625 42.1875 
L 28.078125 42.1875 
L 28.078125 0 
L 10.59375 0 
L 10.59375 42.1875 
L 1.90625 42.1875 
L 1.90625 54.6875 
L 10.59375 54.6875 
L 10.59375 58.5 
Q 10.59375 67.4375 15.578125 71.703125 
Q 20.5625 75.984375 31 75.984375 
z
" id="BitstreamVeraSans-Bold-66"/>
      <path d="M 25.6875 72.90625 
L 36.53125 72.90625 
L 10.796875 -9.28125 
L 0 -9.28125 
z
" id="BitstreamVeraSans-Bold-2f"/>
     </defs>
     <g transform="translate(21.1840625 201.709145943)rotate(-90.0)scale(0.12 -0.12)">
      <use xlink:href="#BitstreamVeraSans-Bold-50"/>
      <use x="73.291015625" xlink:href="#BitstreamVeraSans-Bold-72"/>
      <use x="122.607421875" xlink:href="#BitstreamVeraSans-Bold-6f"/>
      <use x="191.30859375" xlink:href="#BitstreamVeraSans-Bold-66"/>
      <use x="234.814453125" xlink:href="#BitstreamVeraSans-Bold-69"/>
      <use x="269.091796875" xlink:href="#BitstreamVeraSans-Bold-74"/>
      <use x="316.89453125" xlink:href="#BitstreamVeraSans-Bold-20"/>
      <use x="351.708984375" xlink:href="#BitstreamVeraSans-Bold-2f"/>
      <use x="388.232421875" xlink:href="#BitstreamVeraSans-Bold-20"/>
      <use x="423.046875" xlink:href="#BitstreamVeraSans-Bold-4c"/>
      <use x="486.767578125" xlink:href="#BitstreamVeraSans-Bold-6f"/>
      <use x="555.46875" xlink:href="#BitstreamVeraSans-Bold-73"/>
      <use x="614.990234375" xlink:href="#BitstreamVeraSans-Bold-73"/>
     </g>
    </g>
   </g>
   <g id="text_23">
    <g id="patch_3">
     <path d="M 242.379381 191.651399 
L 288.616993 191.651399 
L 288.616993 175.973274 
L 242.379381 175.973274 
L 242.379381 172.053743 
L 230.620787 183.812337 
L 242.379381 195.570931 
L 242.379381 191.651399 
z
" style="fill:#ffffff;stroke:#bfbfbf;stroke-linejoin:miter;"/>
    </g>
    <!-- Short Put -->
    <defs>
     <path d="M 18.3125 70.21875 
L 18.3125 54.6875 
L 36.8125 54.6875 
L 36.8125 47.703125 
L 18.3125 47.703125 
L 18.3125 18.015625 
Q 18.3125 11.328125 20.140625 9.421875 
Q 21.96875 7.515625 27.59375 7.515625 
L 36.8125 7.515625 
L 36.8125 0 
L 27.59375 0 
Q 17.1875 0 13.234375 3.875 
Q 9.28125 7.765625 9.28125 18.015625 
L 9.28125 47.703125 
L 2.6875 47.703125 
L 2.6875 54.6875 
L 9.28125 54.6875 
L 9.28125 70.21875 
z
" id="BitstreamVeraSans-Roman-74"/>
     <path d="M 8.5 21.578125 
L 8.5 54.6875 
L 17.484375 54.6875 
L 17.484375 21.921875 
Q 17.484375 14.15625 20.5 10.265625 
Q 23.53125 6.390625 29.59375 6.390625 
Q 36.859375 6.390625 41.078125 11.03125 
Q 45.3125 15.671875 45.3125 23.6875 
L 45.3125 54.6875 
L 54.296875 54.6875 
L 54.296875 0 
L 45.3125 0 
L 45.3125 8.40625 
Q 42.046875 3.421875 37.71875 1 
Q 33.40625 -1.421875 27.6875 -1.421875 
Q 18.265625 -1.421875 13.375 4.4375 
Q 8.5 10.296875 8.5 21.578125 
" id="BitstreamVeraSans-Roman-75"/>
     <path d="M 19.671875 64.796875 
L 19.671875 37.40625 
L 32.078125 37.40625 
Q 38.96875 37.40625 42.71875 40.96875 
Q 46.484375 44.53125 46.484375 51.125 
Q 46.484375 57.671875 42.71875 61.234375 
Q 38.96875 64.796875 32.078125 64.796875 
z
M 9.8125 72.90625 
L 32.078125 72.90625 
Q 44.34375 72.90625 50.609375 67.359375 
Q 56.890625 61.8125 56.890625 51.125 
Q 56.890625 40.328125 50.609375 34.8125 
Q 44.34375 29.296875 32.078125 29.296875 
L 19.671875 29.296875 
L 19.671875 0 
L 9.8125 0 
z
" id="BitstreamVeraSans-Roman-50"/>
     <path d="M 41.109375 46.296875 
Q 39.59375 47.171875 37.8125 47.578125 
Q 36.03125 48 33.890625 48 
Q 26.265625 48 22.1875 43.046875 
Q 18.109375 38.09375 18.109375 28.8125 
L 18.109375 0 
L 9.078125 0 
L 9.078125 54.6875 
L 18.109375 54.6875 
L 18.109375 46.1875 
Q 20.953125 51.171875 25.484375 53.578125 
Q 30.03125 56 36.53125 56 
Q 37.453125 56 38.578125 55.875 
Q 39.703125 55.765625 41.0625 55.515625 
z
" id="BitstreamVeraSans-Roman-72"/>
     <path d="M 54.890625 33.015625 
L 54.890625 0 
L 45.90625 0 
L 45.90625 32.71875 
Q 45.90625 40.484375 42.875 44.328125 
Q 39.84375 48.1875 33.796875 48.1875 
Q 26.515625 48.1875 22.3125 43.546875 
Q 18.109375 38.921875 18.109375 30.90625 
L 18.109375 0 
L 9.078125 0 
L 9.078125 75.984375 
L 18.109375 75.984375 
L 18.109375 46.1875 
Q 21.34375 51.125 25.703125 53.5625 
Q 30.078125 56 35.796875 56 
Q 45.21875 56 50.046875 50.171875 
Q 54.890625 44.34375 54.890625 33.015625 
" id="BitstreamVeraSans-Roman-68"/>
     <path d="M 30.609375 48.390625 
Q 23.390625 48.390625 19.1875 42.75 
Q 14.984375 37.109375 14.984375 27.296875 
Q 14.984375 17.484375 19.15625 11.84375 
Q 23.34375 6.203125 30.609375 6.203125 
Q 37.796875 6.203125 41.984375 11.859375 
Q 46.1875 17.53125 46.1875 27.296875 
Q 46.1875 37.015625 41.984375 42.703125 
Q 37.796875 48.390625 30.609375 48.390625 
M 30.609375 56 
Q 42.328125 56 49.015625 48.375 
Q 55.71875 40.765625 55.71875 27.296875 
Q 55.71875 13.875 49.015625 6.21875 
Q 42.328125 -1.421875 30.609375 -1.421875 
Q 18.84375 -1.421875 12.171875 6.21875 
Q 5.515625 13.875 5.515625 27.296875 
Q 5.515625 40.765625 12.171875 48.375 
Q 18.84375 56 30.609375 56 
" id="BitstreamVeraSans-Roman-6f"/>
     <path id="BitstreamVeraSans-Roman-20"/>
     <path d="M 53.515625 70.515625 
L 53.515625 60.890625 
Q 47.90625 63.578125 42.921875 64.890625 
Q 37.9375 66.21875 33.296875 66.21875 
Q 25.25 66.21875 20.875 63.09375 
Q 16.5 59.96875 16.5 54.203125 
Q 16.5 49.359375 19.40625 46.890625 
Q 22.3125 44.4375 30.421875 42.921875 
L 36.375 41.703125 
Q 47.40625 39.59375 52.65625 34.296875 
Q 57.90625 29 57.90625 20.125 
Q 57.90625 9.515625 50.796875 4.046875 
Q 43.703125 -1.421875 29.984375 -1.421875 
Q 24.8125 -1.421875 18.96875 -0.25 
Q 13.140625 0.921875 6.890625 3.21875 
L 6.890625 13.375 
Q 12.890625 10.015625 18.65625 8.296875 
Q 24.421875 6.59375 29.984375 6.59375 
Q 38.421875 6.59375 43.015625 9.90625 
Q 47.609375 13.234375 47.609375 19.390625 
Q 47.609375 24.75 44.3125 27.78125 
Q 41.015625 30.8125 33.5 32.328125 
L 27.484375 33.5 
Q 16.453125 35.6875 11.515625 40.375 
Q 6.59375 45.0625 6.59375 53.421875 
Q 6.59375 63.09375 13.40625 68.65625 
Q 20.21875 74.21875 32.171875 74.21875 
Q 37.3125 74.21875 42.625 73.28125 
Q 47.953125 72.359375 53.515625 70.515625 
" id="BitstreamVeraSans-Roman-53"/>
    </defs>
    <g transform="translate(239.3169927 186.571711933)scale(0.1 -0.1)">
     <use xlink:href="#BitstreamVeraSans-Roman-53"/>
     <use x="63.4765625" xlink:href="#BitstreamVeraSans-Roman-68"/>
     <use x="126.85546875" xlink:href="#BitstreamVeraSans-Roman-6f"/>
     <use x="188.037109375" xlink:href="#BitstreamVeraSans-Roman-72"/>
     <use x="229.150390625" xlink:href="#BitstreamVeraSans-Roman-74"/>
     <use x="268.359375" xlink:href="#BitstreamVeraSans-Roman-20"/>
     <use x="300.146484375" xlink:href="#BitstreamVeraSans-Roman-50"/>
     <use x="360.43359375" xlink:href="#BitstreamVeraSans-Roman-75"/>
     <use x="423.8125" xlink:href="#BitstreamVeraSans-Roman-74"/>
    </g>
   </g>
   <g id="text_24">
    <g id="patch_4">
     <path d="M 358.573376 191.651399 
L 309.954515 191.651399 
L 309.954515 175.973274 
L 358.573376 175.973274 
L 358.573376 172.053743 
L 370.33197 183.812337 
L 358.573376 195.570931 
L 358.573376 191.651399 
z
" style="fill:#ffffff;stroke:#bfbfbf;stroke-linejoin:miter;"/>
    </g>
    <!-- Short Call -->
    <defs>
     <path d="M 64.40625 67.28125 
L 64.40625 56.890625 
Q 59.421875 61.53125 53.78125 63.8125 
Q 48.140625 66.109375 41.796875 66.109375 
Q 29.296875 66.109375 22.65625 58.46875 
Q 16.015625 50.828125 16.015625 36.375 
Q 16.015625 21.96875 22.65625 14.328125 
Q 29.296875 6.6875 41.796875 6.6875 
Q 48.140625 6.6875 53.78125 8.984375 
Q 59.421875 11.28125 64.40625 15.921875 
L 64.40625 5.609375 
Q 59.234375 2.09375 53.4375 0.328125 
Q 47.65625 -1.421875 41.21875 -1.421875 
Q 24.65625 -1.421875 15.125 8.703125 
Q 5.609375 18.84375 5.609375 36.375 
Q 5.609375 53.953125 15.125 64.078125 
Q 24.65625 74.21875 41.21875 74.21875 
Q 47.75 74.21875 53.53125 72.484375 
Q 59.328125 70.75 64.40625 67.28125 
" id="BitstreamVeraSans-Roman-43"/>
     <path d="M 9.421875 75.984375 
L 18.40625 75.984375 
L 18.40625 0 
L 9.421875 0 
z
" id="BitstreamVeraSans-Roman-6c"/>
     <path d="M 34.28125 27.484375 
Q 23.390625 27.484375 19.1875 25 
Q 14.984375 22.515625 14.984375 16.5 
Q 14.984375 11.71875 18.140625 8.90625 
Q 21.296875 6.109375 26.703125 6.109375 
Q 34.1875 6.109375 38.703125 11.40625 
Q 43.21875 16.703125 43.21875 25.484375 
L 43.21875 27.484375 
z
M 52.203125 31.203125 
L 52.203125 0 
L 43.21875 0 
L 43.21875 8.296875 
Q 40.140625 3.328125 35.546875 0.953125 
Q 30.953125 -1.421875 24.3125 -1.421875 
Q 15.921875 -1.421875 10.953125 3.296875 
Q 6 8.015625 6 15.921875 
Q 6 25.140625 12.171875 29.828125 
Q 18.359375 34.515625 30.609375 34.515625 
L 43.21875 34.515625 
L 43.21875 35.40625 
Q 43.21875 41.609375 39.140625 45 
Q 35.0625 48.390625 27.6875 48.390625 
Q 23 48.390625 18.546875 47.265625 
Q 14.109375 46.140625 10.015625 43.890625 
L 10.015625 52.203125 
Q 14.9375 54.109375 19.578125 55.046875 
Q 24.21875 56 28.609375 56 
Q 40.484375 56 46.34375 49.84375 
Q 52.203125 43.703125 52.203125 31.203125 
" id="BitstreamVeraSans-Roman-61"/>
    </defs>
    <g transform="translate(312.954514799 186.571711933)scale(0.1 -0.1)">
     <use xlink:href="#BitstreamVeraSans-Roman-53"/>
     <use x="63.4765625" xlink:href="#BitstreamVeraSans-Roman-68"/>
     <use x="126.85546875" xlink:href="#BitstreamVeraSans-Roman-6f"/>
     <use x="188.037109375" xlink:href="#BitstreamVeraSans-Roman-72"/>
     <use x="229.150390625" xlink:href="#BitstreamVeraSans-Roman-74"/>
     <use x="268.359375" xlink:href="#BitstreamVeraSans-Roman-20"/>
     <use x="300.146484375" xlink:href="#BitstreamVeraSans-Roman-43"/>
     <use x="369.970703125" xlink:href="#BitstreamVeraSans-Roman-61"/>
     <use x="431.25" xlink:href="#BitstreamVeraSans-Roman-6c"/>
     <use x="459.033203125" xlink:href="#BitstreamVeraSans-Roman-6c"/>
    </g>
   </g>
   <g id="text_25">
    <g id="patch_5">
     <path d="M 140.146998 191.651399 
L 96.370324 191.651399 
L 96.370324 175.973274 
L 140.146998 175.973274 
L 140.146998 172.053743 
L 151.905591 183.812337 
L 140.146998 195.570931 
L 140.146998 191.651399 
z
" style="fill:#ffffff;stroke:#bfbfbf;stroke-linejoin:miter;"/>
    </g>
    <!-- Long Put -->
    <defs>
     <path d="M 54.890625 33.015625 
L 54.890625 0 
L 45.90625 0 
L 45.90625 32.71875 
Q 45.90625 40.484375 42.875 44.328125 
Q 39.84375 48.1875 33.796875 48.1875 
Q 26.515625 48.1875 22.3125 43.546875 
Q 18.109375 38.921875 18.109375 30.90625 
L 18.109375 0 
L 9.078125 0 
L 9.078125 54.6875 
L 18.109375 54.6875 
L 18.109375 46.1875 
Q 21.34375 51.125 25.703125 53.5625 
Q 30.078125 56 35.796875 56 
Q 45.21875 56 50.046875 50.171875 
Q 54.890625 44.34375 54.890625 33.015625 
" id="BitstreamVeraSans-Roman-6e"/>
     <path d="M 9.8125 72.90625 
L 19.671875 72.90625 
L 19.671875 8.296875 
L 55.171875 8.296875 
L 55.171875 0 
L 9.8125 0 
z
" id="BitstreamVeraSans-Roman-4c"/>
     <path d="M 45.40625 27.984375 
Q 45.40625 37.75 41.375 43.109375 
Q 37.359375 48.484375 30.078125 48.484375 
Q 22.859375 48.484375 18.828125 43.109375 
Q 14.796875 37.75 14.796875 27.984375 
Q 14.796875 18.265625 18.828125 12.890625 
Q 22.859375 7.515625 30.078125 7.515625 
Q 37.359375 7.515625 41.375 12.890625 
Q 45.40625 18.265625 45.40625 27.984375 
M 54.390625 6.78125 
Q 54.390625 -7.171875 48.1875 -13.984375 
Q 42 -20.796875 29.203125 -20.796875 
Q 24.46875 -20.796875 20.265625 -20.09375 
Q 16.0625 -19.390625 12.109375 -17.921875 
L 12.109375 -9.1875 
Q 16.0625 -11.328125 19.921875 -12.34375 
Q 23.78125 -13.375 27.78125 -13.375 
Q 36.625 -13.375 41.015625 -8.765625 
Q 45.40625 -4.15625 45.40625 5.171875 
L 45.40625 9.625 
Q 42.625 4.78125 38.28125 2.390625 
Q 33.9375 0 27.875 0 
Q 17.828125 0 11.671875 7.65625 
Q 5.515625 15.328125 5.515625 27.984375 
Q 5.515625 40.671875 11.671875 48.328125 
Q 17.828125 56 27.875 56 
Q 33.9375 56 38.28125 53.609375 
Q 42.625 51.21875 45.40625 46.390625 
L 45.40625 54.6875 
L 54.390625 54.6875 
z
" id="BitstreamVeraSans-Roman-67"/>
    </defs>
    <g transform="translate(99.3703235499 186.571711933)scale(0.1 -0.1)">
     <use xlink:href="#BitstreamVeraSans-Roman-4c"/>
     <use x="55.697265625" xlink:href="#BitstreamVeraSans-Roman-6f"/>
     <use x="116.87890625" xlink:href="#BitstreamVeraSans-Roman-6e"/>
     <use x="180.2578125" xlink:href="#BitstreamVeraSans-Roman-67"/>
     <use x="243.734375" xlink:href="#BitstreamVeraSans-Roman-20"/>
     <use x="275.521484375" xlink:href="#BitstreamVeraSans-Roman-50"/>
     <use x="335.80859375" xlink:href="#BitstreamVeraSans-Roman-75"/>
     <use x="399.1875" xlink:href="#BitstreamVeraSans-Roman-74"/>
    </g>
   </g>
   <g id="text_26">
    <g id="patch_6">
     <path d="M 460.80576 191.651399 
L 506.963684 191.651399 
L 506.963684 175.973274 
L 460.80576 175.973274 
L 460.80576 172.053743 
L 449.047166 183.812337 
L 460.80576 195.570931 
L 460.80576 191.651399 
z
" style="fill:#ffffff;stroke:#bfbfbf;stroke-linejoin:miter;"/>
    </g>
    <!-- Long Call -->
    <g transform="translate(457.743371449 186.571711933)scale(0.1 -0.1)">
     <use xlink:href="#BitstreamVeraSans-Roman-4c"/>
     <use x="55.697265625" xlink:href="#BitstreamVeraSans-Roman-6f"/>
     <use x="116.87890625" xlink:href="#BitstreamVeraSans-Roman-6e"/>
     <use x="180.2578125" xlink:href="#BitstreamVeraSans-Roman-67"/>
     <use x="243.734375" xlink:href="#BitstreamVeraSans-Roman-20"/>
     <use x="275.521484375" xlink:href="#BitstreamVeraSans-Roman-43"/>
     <use x="345.345703125" xlink:href="#BitstreamVeraSans-Roman-61"/>
     <use x="406.625" xlink:href="#BitstreamVeraSans-Roman-6c"/>
     <use x="434.408203125" xlink:href="#BitstreamVeraSans-Roman-6c"/>
    </g>
   </g>
   <g id="text_27">
    <!-- Expiration P/L Graph: Short Iron Condor -->
    <defs>
     <path d="M 45.609375 46.6875 
L 45.609375 75.984375 
L 63.1875 75.984375 
L 63.1875 0 
L 45.609375 0 
L 45.609375 7.90625 
Q 42 3.078125 37.640625 0.828125 
Q 33.296875 -1.421875 27.59375 -1.421875 
Q 17.484375 -1.421875 10.984375 6.609375 
Q 4.5 14.65625 4.5 27.296875 
Q 4.5 39.9375 10.984375 47.96875 
Q 17.484375 56 27.59375 56 
Q 33.25 56 37.625 53.734375 
Q 42 51.46875 45.609375 46.6875 
M 34.078125 11.28125 
Q 39.703125 11.28125 42.65625 15.375 
Q 45.609375 19.484375 45.609375 27.296875 
Q 45.609375 35.109375 42.65625 39.203125 
Q 39.703125 43.3125 34.078125 43.3125 
Q 28.515625 43.3125 25.5625 39.203125 
Q 22.609375 35.109375 22.609375 27.296875 
Q 22.609375 19.484375 25.5625 15.375 
Q 28.515625 11.28125 34.078125 11.28125 
" id="BitstreamVeraSans-Bold-64"/>
     <path d="M 9.1875 72.90625 
L 27.984375 72.90625 
L 27.984375 0 
L 9.1875 0 
z
" id="BitstreamVeraSans-Bold-49"/>
     <path d="M 63.375 33.296875 
L 63.375 0 
L 45.796875 0 
L 45.796875 5.421875 
L 45.796875 25.484375 
Q 45.796875 32.5625 45.484375 35.25 
Q 45.171875 37.9375 44.390625 39.203125 
Q 43.359375 40.921875 41.59375 41.875 
Q 39.84375 42.828125 37.59375 42.828125 
Q 32.125 42.828125 29 38.59375 
Q 25.875 34.375 25.875 26.90625 
L 25.875 0 
L 8.40625 0 
L 8.40625 54.6875 
L 25.875 54.6875 
L 25.875 46.6875 
Q 29.828125 51.46875 34.265625 53.734375 
Q 38.71875 56 44.09375 56 
Q 53.5625 56 58.46875 50.1875 
Q 63.375 44.390625 63.375 33.296875 
" id="BitstreamVeraSans-Bold-6e"/>
     <path d="M 63.375 33.296875 
L 63.375 0 
L 45.796875 0 
L 45.796875 5.421875 
L 45.796875 25.390625 
Q 45.796875 32.5625 45.484375 35.25 
Q 45.171875 37.9375 44.390625 39.203125 
Q 43.359375 40.921875 41.59375 41.875 
Q 39.84375 42.828125 37.59375 42.828125 
Q 32.125 42.828125 29 38.59375 
Q 25.875 34.375 25.875 26.90625 
L 25.875 0 
L 8.40625 0 
L 8.40625 75.984375 
L 25.875 75.984375 
L 25.875 46.6875 
Q 29.828125 51.46875 34.265625 53.734375 
Q 38.71875 56 44.09375 56 
Q 53.5625 56 58.46875 50.1875 
Q 63.375 44.390625 63.375 33.296875 
" id="BitstreamVeraSans-Bold-68"/>
     <path d="M 25.875 7.90625 
L 25.875 -20.796875 
L 8.40625 -20.796875 
L 8.40625 54.6875 
L 25.875 54.6875 
L 25.875 46.6875 
Q 29.5 51.46875 33.890625 53.734375 
Q 38.28125 56 44 56 
Q 54.109375 56 60.59375 47.96875 
Q 67.09375 39.9375 67.09375 27.296875 
Q 67.09375 14.65625 60.59375 6.609375 
Q 54.109375 -1.421875 44 -1.421875 
Q 38.28125 -1.421875 33.890625 0.84375 
Q 29.5 3.125 25.875 7.90625 
M 37.5 43.3125 
Q 31.890625 43.3125 28.875 39.1875 
Q 25.875 35.0625 25.875 27.296875 
Q 25.875 19.53125 28.875 15.40625 
Q 31.890625 11.28125 37.5 11.28125 
Q 43.109375 11.28125 46.0625 15.375 
Q 49.03125 19.484375 49.03125 27.296875 
Q 49.03125 35.109375 46.0625 39.203125 
Q 43.109375 43.3125 37.5 43.3125 
" id="BitstreamVeraSans-Bold-70"/>
     <path d="M 32.90625 24.609375 
Q 27.4375 24.609375 24.671875 22.75 
Q 21.921875 20.90625 21.921875 17.28125 
Q 21.921875 13.96875 24.140625 12.078125 
Q 26.375 10.203125 30.328125 10.203125 
Q 35.25 10.203125 38.625 13.734375 
Q 42 17.28125 42 22.609375 
L 42 24.609375 
z
M 59.625 31.203125 
L 59.625 0 
L 42 0 
L 42 8.109375 
Q 38.484375 3.125 34.078125 0.84375 
Q 29.6875 -1.421875 23.390625 -1.421875 
Q 14.890625 -1.421875 9.59375 3.53125 
Q 4.296875 8.5 4.296875 16.40625 
Q 4.296875 26.03125 10.90625 30.515625 
Q 17.53125 35.015625 31.6875 35.015625 
L 42 35.015625 
L 42 36.375 
Q 42 40.53125 38.71875 42.453125 
Q 35.453125 44.390625 28.515625 44.390625 
Q 22.90625 44.390625 18.0625 43.265625 
Q 13.234375 42.140625 9.078125 39.890625 
L 9.078125 53.21875 
Q 14.703125 54.59375 20.359375 55.296875 
Q 26.03125 56 31.6875 56 
Q 46.484375 56 53.046875 50.171875 
Q 59.625 44.34375 59.625 31.203125 
" id="BitstreamVeraSans-Bold-61"/>
     <path d="M 22.21875 27.984375 
L 2.484375 54.6875 
L 21 54.6875 
L 32.171875 38.484375 
L 43.5 54.6875 
L 62.015625 54.6875 
L 42.28125 28.078125 
L 62.984375 0 
L 44.484375 0 
L 32.171875 17.28125 
L 20.015625 0 
L 1.515625 0 
z
" id="BitstreamVeraSans-Bold-78"/>
     <path d="M 11.1875 54.6875 
L 28.8125 54.6875 
L 28.8125 35.796875 
L 11.1875 35.796875 
z
M 11.1875 18.890625 
L 28.8125 18.890625 
L 28.8125 0 
L 11.1875 0 
z
" id="BitstreamVeraSans-Bold-3a"/>
     <path d="M 74.703125 5.421875 
Q 67.671875 2 60.109375 0.28125 
Q 52.546875 -1.421875 44.484375 -1.421875 
Q 26.265625 -1.421875 15.625 8.765625 
Q 4.984375 18.953125 4.984375 36.375 
Q 4.984375 54 15.8125 64.109375 
Q 26.65625 74.21875 45.515625 74.21875 
Q 52.78125 74.21875 59.4375 72.84375 
Q 66.109375 71.484375 72.015625 68.796875 
L 72.015625 53.71875 
Q 65.921875 57.171875 59.890625 58.875 
Q 53.859375 60.59375 47.796875 60.59375 
Q 36.578125 60.59375 30.5 54.3125 
Q 24.421875 48.046875 24.421875 36.375 
Q 24.421875 24.8125 30.28125 18.5 
Q 36.140625 12.203125 46.921875 12.203125 
Q 49.859375 12.203125 52.375 12.5625 
Q 54.890625 12.9375 56.890625 13.71875 
L 56.890625 27.875 
L 45.40625 27.875 
L 45.40625 40.484375 
L 74.703125 40.484375 
z
" id="BitstreamVeraSans-Bold-47"/>
     <path d="M 67 4 
Q 61.8125 1.3125 56.203125 -0.046875 
Q 50.59375 -1.421875 44.484375 -1.421875 
Q 26.265625 -1.421875 15.625 8.765625 
Q 4.984375 18.953125 4.984375 36.375 
Q 4.984375 53.859375 15.625 64.03125 
Q 26.265625 74.21875 44.484375 74.21875 
Q 50.59375 74.21875 56.203125 72.84375 
Q 61.8125 71.484375 67 68.796875 
L 67 53.71875 
Q 61.765625 57.28125 56.6875 58.9375 
Q 51.609375 60.59375 46 60.59375 
Q 35.9375 60.59375 30.171875 54.140625 
Q 24.421875 47.703125 24.421875 36.375 
Q 24.421875 25.09375 30.171875 18.640625 
Q 35.9375 12.203125 46 12.203125 
Q 51.609375 12.203125 56.6875 13.859375 
Q 61.765625 15.53125 67 19.09375 
z
" id="BitstreamVeraSans-Bold-43"/>
     <path d="M 9.1875 72.90625 
L 59.90625 72.90625 
L 59.90625 58.6875 
L 27.984375 58.6875 
L 27.984375 45.125 
L 58.015625 45.125 
L 58.015625 30.90625 
L 27.984375 30.90625 
L 27.984375 14.203125 
L 60.984375 14.203125 
L 60.984375 0 
L 9.1875 0 
z
" id="BitstreamVeraSans-Bold-45"/>
    </defs>
    <g transform="translate(165.778253749 20.8)scale(0.12 -0.12)">
     <use xlink:href="#BitstreamVeraSans-Bold-45"/>
     <use x="68.310546875" xlink:href="#BitstreamVeraSans-Bold-78"/>
     <use x="132.8125" xlink:href="#BitstreamVeraSans-Bold-70"/>
     <use x="204.39453125" xlink:href="#BitstreamVeraSans-Bold-69"/>
     <use x="238.671875" xlink:href="#BitstreamVeraSans-Bold-72"/>
     <use x="287.98828125" xlink:href="#BitstreamVeraSans-Bold-61"/>
     <use x="355.46875" xlink:href="#BitstreamVeraSans-Bold-74"/>
     <use x="403.271484375" xlink:href="#BitstreamVeraSans-Bold-69"/>
     <use x="437.548828125" xlink:href="#BitstreamVeraSans-Bold-6f"/>
     <use x="506.25" xlink:href="#BitstreamVeraSans-Bold-6e"/>
     <use x="577.44140625" xlink:href="#BitstreamVeraSans-Bold-20"/>
     <use x="612.255859375" xlink:href="#BitstreamVeraSans-Bold-50"/>
     <use x="685.546875" xlink:href="#BitstreamVeraSans-Bold-2f"/>
     <use x="722.0703125" xlink:href="#BitstreamVeraSans-Bold-4c"/>
     <use x="785.791015625" xlink:href="#BitstreamVeraSans-Bold-20"/>
     <use x="820.60546875" xlink:href="#BitstreamVeraSans-Bold-47"/>
     <use x="902.685546875" xlink:href="#BitstreamVeraSans-Bold-72"/>
     <use x="952.001953125" xlink:href="#BitstreamVeraSans-Bold-61"/>
     <use x="1019.482421875" xlink:href="#BitstreamVeraSans-Bold-70"/>
     <use x="1091.064453125" xlink:href="#BitstreamVeraSans-Bold-68"/>
     <use x="1162.255859375" xlink:href="#BitstreamVeraSans-Bold-3a"/>
     <use x="1202.24609375" xlink:href="#BitstreamVeraSans-Bold-20"/>
     <use x="1237.060546875" xlink:href="#BitstreamVeraSans-Bold-53"/>
     <use x="1309.08203125" xlink:href="#BitstreamVeraSans-Bold-68"/>
     <use x="1380.2734375" xlink:href="#BitstreamVeraSans-Bold-6f"/>
     <use x="1448.974609375" xlink:href="#BitstreamVeraSans-Bold-72"/>
     <use x="1498.291015625" xlink:href="#BitstreamVeraSans-Bold-74"/>
     <use x="1546.09375" xlink:href="#BitstreamVeraSans-Bold-20"/>
     <use x="1580.908203125" xlink:href="#BitstreamVeraSans-Bold-49"/>
     <use x="1618.115234375" xlink:href="#BitstreamVeraSans-Bold-72"/>
     <use x="1667.431640625" xlink:href="#BitstreamVeraSans-Bold-6f"/>
     <use x="1736.1328125" xlink:href="#BitstreamVeraSans-Bold-6e"/>
     <use x="1807.32421875" xlink:href="#BitstreamVeraSans-Bold-20"/>
     <use x="1842.138671875" xlink:href="#BitstreamVeraSans-Bold-43"/>
     <use x="1915.52734375" xlink:href="#BitstreamVeraSans-Bold-6f"/>
     <use x="1984.228515625" xlink:href="#BitstreamVeraSans-Bold-6e"/>
     <use x="2055.419921875" xlink:href="#BitstreamVeraSans-Bold-64"/>
     <use x="2127.001953125" xlink:href="#BitstreamVeraSans-Bold-6f"/>
     <use x="2195.703125" xlink:href="#BitstreamVeraSans-Bold-72"/>
    </g>
   </g>
   <g id="legend_1">
    <g id="patch_7">
     <path d="M 89.05 59.675937 
L 217.604688 59.675937 
Q 219.604688 59.675937 219.604688 57.675937 
L 219.604688 32.8 
Q 219.604688 30.8 217.604688 30.8 
L 89.05 30.8 
Q 87.05 30.8 87.05 32.8 
L 87.05 57.675937 
Q 87.05 59.675937 89.05 59.675937 
z
" style="fill:#ffffff;stroke:#000000;stroke-linejoin:miter;"/>
    </g>
    <g id="line2d_40">
     <path d="M 94.05 45.537187 
L 118.05 45.537187 
" style="fill:none;stroke:#2daf6e;stroke-dasharray:6.000000,6.000000;stroke-dashoffset:0.0;stroke-width:2.0;"/>
    </g>
    <g id="line2d_41"/>
    <g id="text_28">
     <!-- Iron Condor -->
     <defs>
      <path d="M 45.40625 46.390625 
L 45.40625 75.984375 
L 54.390625 75.984375 
L 54.390625 0 
L 45.40625 0 
L 45.40625 8.203125 
Q 42.578125 3.328125 38.25 0.953125 
Q 33.9375 -1.421875 27.875 -1.421875 
Q 17.96875 -1.421875 11.734375 6.484375 
Q 5.515625 14.40625 5.515625 27.296875 
Q 5.515625 40.1875 11.734375 48.09375 
Q 17.96875 56 27.875 56 
Q 33.9375 56 38.25 53.625 
Q 42.578125 51.265625 45.40625 46.390625 
M 14.796875 27.296875 
Q 14.796875 17.390625 18.875 11.75 
Q 22.953125 6.109375 30.078125 6.109375 
Q 37.203125 6.109375 41.296875 11.75 
Q 45.40625 17.390625 45.40625 27.296875 
Q 45.40625 37.203125 41.296875 42.84375 
Q 37.203125 48.484375 30.078125 48.484375 
Q 22.953125 48.484375 18.875 42.84375 
Q 14.796875 37.203125 14.796875 27.296875 
" id="BitstreamVeraSans-Roman-64"/>
      <path d="M 9.8125 72.90625 
L 19.671875 72.90625 
L 19.671875 0 
L 9.8125 0 
z
" id="BitstreamVeraSans-Roman-49"/>
     </defs>
     <g transform="translate(129.05 42.3984375)scale(0.1 -0.1)">
      <use xlink:href="#BitstreamVeraSans-Roman-49"/>
      <use x="29.4921875" xlink:href="#BitstreamVeraSans-Roman-72"/>
      <use x="70.57421875" xlink:href="#BitstreamVeraSans-Roman-6f"/>
      <use x="131.755859375" xlink:href="#BitstreamVeraSans-Roman-6e"/>
      <use x="195.134765625" xlink:href="#BitstreamVeraSans-Roman-20"/>
      <use x="226.921875" xlink:href="#BitstreamVeraSans-Roman-43"/>
      <use x="296.74609375" xlink:href="#BitstreamVeraSans-Roman-6f"/>
      <use x="357.927734375" xlink:href="#BitstreamVeraSans-Roman-6e"/>
      <use x="421.306640625" xlink:href="#BitstreamVeraSans-Roman-64"/>
      <use x="484.783203125" xlink:href="#BitstreamVeraSans-Roman-6f"/>
      <use x="545.96484375" xlink:href="#BitstreamVeraSans-Roman-72"/>
     </g>
     <!-- Breakeven Prices -->
     <defs>
      <path d="M 9.421875 54.6875 
L 18.40625 54.6875 
L 18.40625 0 
L 9.421875 0 
z
M 9.421875 75.984375 
L 18.40625 75.984375 
L 18.40625 64.59375 
L 9.421875 64.59375 
z
" id="BitstreamVeraSans-Roman-69"/>
      <path d="M 56.203125 29.59375 
L 56.203125 25.203125 
L 14.890625 25.203125 
Q 15.484375 15.921875 20.484375 11.0625 
Q 25.484375 6.203125 34.421875 6.203125 
Q 39.59375 6.203125 44.453125 7.46875 
Q 49.3125 8.734375 54.109375 11.28125 
L 54.109375 2.78125 
Q 49.265625 0.734375 44.1875 -0.34375 
Q 39.109375 -1.421875 33.890625 -1.421875 
Q 20.796875 -1.421875 13.15625 6.1875 
Q 5.515625 13.8125 5.515625 26.8125 
Q 5.515625 40.234375 12.765625 48.109375 
Q 20.015625 56 32.328125 56 
Q 43.359375 56 49.78125 48.890625 
Q 56.203125 41.796875 56.203125 29.59375 
M 47.21875 32.234375 
Q 47.125 39.59375 43.09375 43.984375 
Q 39.0625 48.390625 32.421875 48.390625 
Q 24.90625 48.390625 20.390625 44.140625 
Q 15.875 39.890625 15.1875 32.171875 
z
" id="BitstreamVeraSans-Roman-65"/>
      <path d="M 2.984375 54.6875 
L 12.5 54.6875 
L 29.59375 8.796875 
L 46.6875 54.6875 
L 56.203125 54.6875 
L 35.6875 0 
L 23.484375 0 
z
" id="BitstreamVeraSans-Roman-76"/>
      <path d="M 19.671875 34.8125 
L 19.671875 8.109375 
L 35.5 8.109375 
Q 43.453125 8.109375 47.28125 11.40625 
Q 51.125 14.703125 51.125 21.484375 
Q 51.125 28.328125 47.28125 31.5625 
Q 43.453125 34.8125 35.5 34.8125 
z
M 19.671875 64.796875 
L 19.671875 42.828125 
L 34.28125 42.828125 
Q 41.5 42.828125 45.03125 45.53125 
Q 48.578125 48.25 48.578125 53.8125 
Q 48.578125 59.328125 45.03125 62.0625 
Q 41.5 64.796875 34.28125 64.796875 
z
M 9.8125 72.90625 
L 35.015625 72.90625 
Q 46.296875 72.90625 52.390625 68.21875 
Q 58.5 63.53125 58.5 54.890625 
Q 58.5 48.1875 55.375 44.234375 
Q 52.25 40.28125 46.1875 39.3125 
Q 53.46875 37.75 57.5 32.78125 
Q 61.53125 27.828125 61.53125 20.40625 
Q 61.53125 10.640625 54.890625 5.3125 
Q 48.25 0 35.984375 0 
L 9.8125 0 
z
" id="BitstreamVeraSans-Roman-42"/>
      <path d="M 9.078125 75.984375 
L 18.109375 75.984375 
L 18.109375 31.109375 
L 44.921875 54.6875 
L 56.390625 54.6875 
L 27.390625 29.109375 
L 57.625 0 
L 45.90625 0 
L 18.109375 26.703125 
L 18.109375 0 
L 9.078125 0 
z
" id="BitstreamVeraSans-Roman-6b"/>
      <path d="M 48.78125 52.59375 
L 48.78125 44.1875 
Q 44.96875 46.296875 41.140625 47.34375 
Q 37.3125 48.390625 33.40625 48.390625 
Q 24.65625 48.390625 19.8125 42.84375 
Q 14.984375 37.3125 14.984375 27.296875 
Q 14.984375 17.28125 19.8125 11.734375 
Q 24.65625 6.203125 33.40625 6.203125 
Q 37.3125 6.203125 41.140625 7.25 
Q 44.96875 8.296875 48.78125 10.40625 
L 48.78125 2.09375 
Q 45.015625 0.34375 40.984375 -0.53125 
Q 36.96875 -1.421875 32.421875 -1.421875 
Q 20.0625 -1.421875 12.78125 6.34375 
Q 5.515625 14.109375 5.515625 27.296875 
Q 5.515625 40.671875 12.859375 48.328125 
Q 20.21875 56 33.015625 56 
Q 37.15625 56 41.109375 55.140625 
Q 45.0625 54.296875 48.78125 52.59375 
" id="BitstreamVeraSans-Roman-63"/>
      <path d="M 44.28125 53.078125 
L 44.28125 44.578125 
Q 40.484375 46.53125 36.375 47.5 
Q 32.28125 48.484375 27.875 48.484375 
Q 21.1875 48.484375 17.84375 46.4375 
Q 14.5 44.390625 14.5 40.28125 
Q 14.5 37.15625 16.890625 35.375 
Q 19.28125 33.59375 26.515625 31.984375 
L 29.59375 31.296875 
Q 39.15625 29.25 43.1875 25.515625 
Q 47.21875 21.78125 47.21875 15.09375 
Q 47.21875 7.46875 41.1875 3.015625 
Q 35.15625 -1.421875 24.609375 -1.421875 
Q 20.21875 -1.421875 15.453125 -0.5625 
Q 10.6875 0.296875 5.421875 2 
L 5.421875 11.28125 
Q 10.40625 8.6875 15.234375 7.390625 
Q 20.0625 6.109375 24.8125 6.109375 
Q 31.15625 6.109375 34.5625 8.28125 
Q 37.984375 10.453125 37.984375 14.40625 
Q 37.984375 18.0625 35.515625 20.015625 
Q 33.0625 21.96875 24.703125 23.78125 
L 21.578125 24.515625 
Q 13.234375 26.265625 9.515625 29.90625 
Q 5.8125 33.546875 5.8125 39.890625 
Q 5.8125 47.609375 11.28125 51.796875 
Q 16.75 56 26.8125 56 
Q 31.78125 56 36.171875 55.265625 
Q 40.578125 54.546875 44.28125 53.078125 
" id="BitstreamVeraSans-Roman-73"/>
     </defs>
     <g transform="translate(129.05 53.59625)scale(0.1 -0.1)">
      <use xlink:href="#BitstreamVeraSans-Roman-42"/>
      <use x="68.603515625" xlink:href="#BitstreamVeraSans-Roman-72"/>
      <use x="109.685546875" xlink:href="#BitstreamVeraSans-Roman-65"/>
      <use x="171.208984375" xlink:href="#BitstreamVeraSans-Roman-61"/>
      <use x="232.48828125" xlink:href="#BitstreamVeraSans-Roman-6b"/>
      <use x="290.3515625" xlink:href="#BitstreamVeraSans-Roman-65"/>
      <use x="351.875" xlink:href="#BitstreamVeraSans-Roman-76"/>
      <use x="411.0546875" xlink:href="#BitstreamVeraSans-Roman-65"/>
      <use x="472.578125" xlink:href="#BitstreamVeraSans-Roman-6e"/>
      <use x="535.95703125" xlink:href="#BitstreamVeraSans-Roman-20"/>
      <use x="567.744140625" xlink:href="#BitstreamVeraSans-Roman-50"/>
      <use x="628.03125" xlink:href="#BitstreamVeraSans-Roman-72"/>
      <use x="669.14453125" xlink:href="#BitstreamVeraSans-Roman-69"/>
      <use x="696.927734375" xlink:href="#BitstreamVeraSans-Roman-63"/>
      <use x="751.908203125" xlink:href="#BitstreamVeraSans-Roman-65"/>
      <use x="813.431640625" xlink:href="#BitstreamVeraSans-Roman-73"/>
     </g>
    </g>
   </g>
  </g>
 </g>
 <defs>
  <clipPath id="pe4dfc37c60">
   <rect height="270.878291885" width="436.852757499" x="82.05" y="25.8"/>
  </clipPath>
 </defs>
</svg>
